<?xml version="1.0" encoding="UTF-8"?>
<svg version="1.1" xmlns="http://www.w3.org/2000/svg" width="1080" height="1080">
<path d="M0 0 C356.4 0 712.8 0 1080 0 C1080 356.4 1080 712.8 1080 1080 C723.6 1080 367.2 1080 0 1080 C0 723.6 0 367.2 0 0 Z " fill="#64010D" transform="translate(0,0)"/>
<path d="M0 0 C1.50486465 -0.0076664 1.50486465 -0.0076664 3.04013062 -0.01548767 C6.32198225 -0.0292678 9.60362111 -0.02843554 12.88549805 -0.02612305 C15.19036434 -0.03001655 17.49522993 -0.03435256 19.8000946 -0.03910828 C24.61886933 -0.0465458 29.43757077 -0.0462973 34.25634766 -0.04101562 C40.39898621 -0.03522681 46.54132266 -0.05215015 52.68391132 -0.0753603 C57.44117455 -0.09016886 62.19836623 -0.09095963 66.95564842 -0.08785057 C69.21881902 -0.08836029 71.481994 -0.09353151 73.74514198 -0.10366249 C98.36280806 -0.20034678 118.34493316 3.56571896 136.9206543 20.8762207 C149.02973537 32.90692585 156.32616486 47.50510294 156.56176758 64.72216797 C156.56888397 67.63700994 156.55070762 70.55130688 156.5300293 73.46606445 C156.52629259 75.02261675 156.52344873 76.57917142 156.52145386 78.13572693 C156.51386914 82.20454565 156.49426589 86.27321838 156.4720459 90.34197998 C156.45147538 94.50506618 156.44242833 98.6681763 156.43237305 102.83129883 C156.41101439 110.97915179 156.37694191 119.12688676 156.3347168 127.2746582 C157.58591309 127.13753418 158.83710937 127.00041016 160.1262207 126.85913086 C177.56783629 124.96946054 177.56783629 124.96946054 185.7097168 124.6496582 C187.03531616 124.59708862 187.03531616 124.59708862 188.38769531 124.54345703 C191.36977827 124.43793049 194.3518097 124.35345893 197.3347168 124.2746582 C199.098396 124.22365967 199.098396 124.22365967 200.89770508 124.17163086 C228.91091474 123.4537172 228.91091474 123.4537172 241.3347168 128.2746582 C242.36854492 128.63688477 243.40237305 128.99911133 244.4675293 129.37231445 C266.05901686 137.51744084 280.9758605 154.16380289 290.4831543 174.76293945 C295.27096192 186.04848599 296.78053069 196.76408527 296.73876953 208.96899414 C296.74448704 210.40291877 296.75145657 211.83683886 296.75956726 213.27075195 C296.77736577 217.13056348 296.77635515 220.990146 296.77062488 224.84998608 C296.76751229 228.08996437 296.77364859 231.32989997 296.77966362 234.56987214 C296.79366483 242.22443401 296.79218564 249.87888419 296.78076172 257.53344727 C296.7692967 265.38832719 296.78333894 273.24286503 296.81015819 281.09769988 C296.83243026 287.87862708 296.83892651 294.65944782 296.83308178 301.44040895 C296.8297369 305.47394398 296.83195992 309.50726013 296.84933281 313.54076385 C296.86498391 317.33969606 296.86064934 321.13812848 296.84202766 324.93704224 C296.83667979 326.96635761 296.85071814 328.99569643 296.86572266 331.02496338 C296.71774685 349.83312039 290.89744206 366.15654791 278.3347168 380.2746582 C277.73014648 380.97333008 277.12557617 381.67200195 276.50268555 382.3918457 C266.0074628 393.74878148 250.73642061 401.10058534 235.3347168 402.2746582 C230.33466515 402.40772827 225.33605998 402.39158638 220.3347168 402.37231445 C218.43012695 402.37080383 218.43012695 402.37080383 216.48706055 402.3692627 C211.76960337 402.36405299 207.05215912 402.3500918 202.3347168 402.3371582 C191.7747168 402.3165332 181.2147168 402.2959082 170.3347168 402.2746582 C170.3347168 375.8746582 170.3347168 349.4746582 170.3347168 322.2746582 C185.5147168 322.2746582 200.6947168 322.2746582 216.3347168 322.2746582 C216.0047168 283.6646582 215.6747168 245.0546582 215.3347168 205.2746582 C194.35128246 205.15145914 194.35128246 205.15145914 173.55737305 206.0559082 C169.89287012 206.29550954 166.24262995 206.29638013 162.57080078 206.28833008 C161.40234116 206.2863562 160.23388153 206.28438232 159.03001404 206.28234863 C157.6958419 206.27854187 157.6958419 206.27854187 156.3347168 206.2746582 C156.33748218 206.97996548 156.34024755 207.68527275 156.34309673 208.41195297 C156.40950258 225.61559976 156.45906818 242.81921377 156.49015331 260.02296066 C156.50558745 268.34274667 156.52661048 276.66244684 156.56103516 284.98217773 C156.59104375 292.23812428 156.61031687 299.49400862 156.61698228 306.7500155 C156.62087524 310.5879768 156.62995115 314.42576024 156.65190697 318.26366425 C156.67245378 321.88503006 156.67851439 325.50614681 156.67403984 329.12756538 C156.67524304 331.07190779 156.69128907 333.01622383 156.70797729 334.960495 C156.63907308 354.77739736 148.95783023 370.52898118 135.11206055 384.52075195 C117.68678309 400.77819776 97.98743763 403.17746746 75.13696289 403.03515625 C72.64797706 403.04166315 70.15899684 403.05073388 67.67002869 403.06214905 C61.65504111 403.08270178 55.64069073 403.0756191 49.62575386 403.05464818 C44.73164542 403.03826069 39.83766376 403.0341897 34.94353104 403.03861427 C34.2428723 403.03924495 33.54221357 403.03987562 32.82032276 403.04052541 C31.39628704 403.04187167 29.97225136 403.04325125 28.5482157 403.04466376 C15.24557031 403.05655491 1.94318031 403.03265133 -11.35940699 402.99564568 C-22.73945074 402.96474595 -34.11920126 402.96239369 -45.49926758 402.98144531 C-58.76240681 403.00362433 -72.02538221 403.00964225 -85.28852975 402.98912269 C-86.70626281 402.98696008 -88.12399588 402.98481098 -89.54172897 402.98267555 C-90.23901592 402.98160919 -90.93630286 402.98054282 -91.65471972 402.97944414 C-96.53611596 402.97301181 -101.41742699 402.97769927 -106.29881668 402.98670006 C-112.88352612 402.99841788 -119.46781188 402.98296482 -126.05247307 402.94995689 C-128.45813963 402.94180001 -130.8638523 402.94197382 -133.26951408 402.95143509 C-155.46793032 403.02910397 -173.63449564 399.5346187 -190.35668945 383.6418457 C-205.47091248 368.14401295 -212.32601039 349.58536109 -212.18286133 328.1418457 C-212.18830268 326.80437465 -212.19543645 325.46690962 -212.20410156 324.12945557 C-212.22209955 320.54665234 -212.21536678 316.96431769 -212.20258522 313.38150787 C-212.19233357 309.60092568 -212.20188415 305.82037898 -212.20812988 302.03979492 C-212.21537139 295.69548468 -212.20591127 289.35136176 -212.18676758 283.00708008 C-212.16500548 275.71161063 -212.17205935 268.41658862 -212.1940732 261.12112999 C-212.21232776 254.81487434 -212.21473683 248.50875199 -212.20431852 242.20247841 C-212.19813838 238.45463371 -212.19709421 234.70699807 -212.21046448 230.95916748 C-212.22217043 227.43265994 -212.21373464 223.90671932 -212.19088745 220.38027191 C-212.18322769 218.49752036 -212.19482908 216.61471982 -212.20739746 214.73199463 C-212.02594759 196.06955169 -205.46985849 179.10828262 -192.28637695 165.82543945 C-191.42141602 164.98368164 -190.55645508 164.14192383 -189.6652832 163.2746582 C-189.05813477 162.67008789 -188.45098633 162.06551758 -187.82543945 161.44262695 C-180.59180874 154.7395804 -171.80706458 150.34996252 -162.4777832 147.3996582 C-161.83719971 147.19655029 -161.19661621 146.99344238 -160.53662109 146.78417969 C-151.41164172 144.09474883 -141.81256096 143.99631107 -132.37231445 143.52075195 C-131.10868576 143.45557877 -129.84505707 143.39040558 -128.5431366 143.32325745 C-125.87810025 143.18663923 -123.21303485 143.0511446 -120.54785156 142.91748047 C-117.1739188 142.74805512 -113.80030603 142.57299852 -110.42674732 142.39630032 C-107.15877465 142.22607327 -103.89053134 142.06121339 -100.62231445 141.89575195 C-99.43225296 141.83326767 -98.24219147 141.77078339 -97.0160675 141.70640564 C-88.89317495 141.30535103 -80.79747355 141.20561417 -72.6652832 141.2746582 C-72.67416565 140.26591644 -72.6830481 139.25717468 -72.69219971 138.21786499 C-72.77370041 128.65679618 -72.83344614 119.09579894 -72.87253189 109.53446007 C-72.89330263 104.62023686 -72.92142535 99.7062967 -72.96704102 94.79223633 C-73.01087736 90.03947845 -73.03449911 85.2869908 -73.04479218 80.53404617 C-73.05211637 78.73136778 -73.06641634 76.9287022 -73.08820343 75.12614059 C-73.33966328 53.43571628 -67.34415174 35.70937758 -52.15209961 19.74536133 C-45.04470627 12.71499393 -36.93756919 7.86196885 -27.6652832 4.2746582 C-26.6752832 3.8827832 -25.6852832 3.4909082 -24.6652832 3.0871582 C-16.46546421 0.86637389 -8.47513232 -0.02281515 0 0 Z " fill="#FEFDFD" transform="translate(484.665283203125,331.725341796875)"/>
<path d="M0 0 C1.36125 1.051875 1.36125 1.051875 2.75 2.125 C3.31203125 2.53234375 3.8740625 2.9396875 4.453125 3.359375 C11.92758235 9.14395503 17.72235512 18.72117095 19.03283501 28.16272926 C19.14289162 30.3033464 19.1671019 32.42618856 19.15405273 34.56958008 C19.16091599 35.372379 19.16777924 36.17517792 19.17485046 37.00230408 C19.19302059 39.63323092 19.18929419 42.26355565 19.18359375 44.89453125 C19.1881611 46.74004813 19.19346832 48.58556331 19.19947815 50.43107605 C19.20839072 54.29176763 19.2060083 58.15225216 19.19604492 62.01293945 C19.18457316 66.9353416 19.20474869 71.85702444 19.23396206 76.77933216 C19.25240284 80.58945684 19.25201571 84.39941177 19.24632454 88.20956993 C19.2461722 90.02306818 19.25214321 91.83657859 19.26461601 93.65003395 C19.33861093 106.17367224 18.69640755 116.77059016 10.75 127.125 C10.028125 128.115 9.30625 129.105 8.5625 130.125 C1.80827689 137.96728945 -8.30981673 142.74273812 -18.53125 143.54296875 C-30.89063128 144.11291796 -40.20737787 141.93318409 -49.75 133.625 C-54.37616353 129.24556519 -58.12603069 124.80073548 -60.9375 119.0625 C-61.35386719 118.22589844 -61.77023437 117.38929688 -62.19921875 116.52734375 C-64.27393507 111.7840332 -64.41337918 107.39017296 -64.44287109 102.25805664 C-64.45104858 101.46880798 -64.45922607 100.67955933 -64.46765137 99.86639404 C-64.49244527 97.25598898 -64.5090124 94.64563837 -64.5234375 92.03515625 C-64.52876118 91.13934782 -64.53408485 90.24353939 -64.53956985 89.32058525 C-64.56628455 84.5723748 -64.58565862 79.82419039 -64.60009766 75.07592773 C-64.61339335 71.16618223 -64.64116717 67.25696403 -64.68212891 63.34741211 C-64.73175998 58.60945147 -64.7562565 53.87196606 -64.76332474 49.13375664 C-64.76999012 47.33861539 -64.78508731 45.54348275 -64.80921555 43.74849129 C-64.97951288 30.30468211 -64.01799143 19.40682602 -54.9375 8.6875 C-39.64173129 -6.96398426 -19.41095525 -11.19862803 0 0 Z " fill="#64020E" transform="translate(550.25,438.875)"/>
<path d="M0 0 C2.65209961 1.65698242 2.65209961 1.65698242 5 4 C5.59594727 6.78637695 5.59594727 6.78637695 5.56640625 9.98828125 C5.57837036 11.74990601 5.57837036 11.74990601 5.59057617 13.54711914 C5.58131104 14.78969482 5.5720459 16.03227051 5.5625 17.3125 C5.84738315 36.86742664 9.51070079 51.99144852 23.37109375 66.4921875 C36.00779163 78.54680865 50.57957261 82.47815155 67.67578125 82.2109375 C84.10176484 81.63005792 97.01652594 73.62019719 108 62 C116.68739084 51.91244361 121.08288329 39.72137827 121.140625 26.46484375 C121.15996094 25.24345703 121.17929687 24.02207031 121.19921875 22.76367188 C121.23312264 20.20914432 121.25130599 17.65436059 121.25390625 15.09960938 C121.46238635 4.71400855 121.46238635 4.71400855 124.328125 1.671875 C127.9235194 -0.57787471 129.83762737 -0.81760891 134 0 C137.27611835 2.75079325 138.73099338 4.47540088 139.47949219 8.7175293 C139.67785939 12.05644809 139.69149041 15.34328731 139.625 18.6875 C139.60288452 20.49093872 139.60288452 20.49093872 139.58032227 22.33081055 C138.93943126 45.83066987 130.22580643 65.27554358 113.33984375 81.56640625 C102.40069114 91.0878189 86.9069494 99 72 99 C72 104.61 72 110.22 72 116 C75.81111328 115.91298828 75.81111328 115.91298828 79.69921875 115.82421875 C82.16818116 115.7851916 84.63710882 115.75485098 87.10620117 115.7253418 C88.81827245 115.70024286 90.53023704 115.66615571 92.24194336 115.62280273 C94.70713645 115.56194261 97.17090985 115.53374568 99.63671875 115.51171875 C100.77919319 115.47300911 100.77919319 115.47300911 101.94474792 115.43351746 C105.96426336 115.43141022 107.76748282 115.81571828 110.95629883 118.34301758 C113.33393198 121.4341395 114.08128732 123.09820872 114 127 C112.22960551 129.74716387 110.93708156 131.53145922 108 133 C105.21971745 133.11933295 102.46372294 133.17837177 99.68237305 133.19287109 C98.82204468 133.20104858 97.96171631 133.20922607 97.07531738 133.21765137 C94.22079163 133.2425171 91.36631563 133.25902399 88.51171875 133.2734375 C87.5378956 133.27876118 86.56407246 133.28408485 85.56073952 133.28956985 C80.40679333 133.316306 75.25287141 133.3356798 70.09887695 133.35009766 C64.77213724 133.3667507 59.4460156 133.41153272 54.1195097 133.4624691 C50.02656839 133.49610419 45.93377449 133.50767097 41.84070778 133.51332474 C39.87707607 133.52004709 37.9134544 133.53529461 35.94995689 133.55921555 C33.20139377 133.5907913 30.45450699 133.5909155 27.70581055 133.58349609 C26.89471329 133.59990143 26.08361603 133.61630676 25.24794006 133.63320923 C21.03654022 133.58667567 19.44629399 133.34421511 15.99494934 130.68228149 C14 128 14 128 13.375 124.5 C14.17687086 120.00952319 15.41525374 118.77751103 19 116 C21.99191443 115.56142733 24.39014885 115.41098224 27.36328125 115.51171875 C28.55125557 115.52233086 28.55125557 115.52233086 29.76322937 115.53315735 C32.28063389 115.56103756 34.79577356 115.623758 37.3125 115.6875 C39.0240563 115.71259139 40.73564765 115.73540309 42.44726562 115.75585938 C46.63307426 115.80658415 50.81401775 115.90442963 55 116 C55 110.39 55 104.78 55 99 C52.958125 98.9071875 52.958125 98.9071875 50.875 98.8125 C33.94233201 97.08565567 17.48691143 87.13444915 6.6875 74.16015625 C-6.97475447 56.6712055 -11.32157082 40.57552251 -11.5625 18.6875 C-11.57721344 17.99234283 -11.59192688 17.29718567 -11.60708618 16.58096313 C-11.64262578 14.57901723 -11.63647689 12.57646578 -11.62890625 10.57421875 C-11.62963135 9.40463623 -11.63035645 8.23505371 -11.63110352 7.0300293 C-11 4 -11 4 -8.64819336 1.62036133 C-5.38671847 -0.37525117 -3.76258448 -0.62709741 0 0 Z " fill="#650611" transform="translate(464,516)"/>
<path d="M0 0 C0 33.33 0 66.66 0 101 C-19.47 101 -38.94 101 -59 101 C-59 68.66 -59 36.32 -59 3 C-19 0 -19 0 0 0 Z " fill="#65030F" transform="translate(412,553)"/>
<path d="M0 0 C8 0 8 0 9.91796875 1.56054688 C10.33691406 2.27275391 10.75585938 2.98496094 11.1875 3.71875 C11.65800781 4.48574219 12.12851562 5.25273438 12.61328125 6.04296875 C13.07089844 6.85378906 13.52851562 7.66460938 14 8.5 C14.48855469 9.31082031 14.97710938 10.12164063 15.48046875 10.95703125 C16.67978929 12.95589881 17.84347031 14.97607304 19 17 C19.33 11.39 19.66 5.78 20 0 C22.64 0 25.28 0 28 0 C28 10.23 28 20.46 28 31 C20 31 20 31 17.57421875 28.76953125 C16.95160156 27.79371094 16.32898438 26.81789063 15.6875 25.8125 C15.05199219 24.84957031 14.41648437 23.88664063 13.76171875 22.89453125 C13.18035156 21.93933594 12.59898437 20.98414063 12 20 C11.42894531 19.09636719 10.85789062 18.19273437 10.26953125 17.26171875 C9 15 9 15 9 13 C8.34 13 7.68 13 7 13 C7 18.94 7 24.88 7 31 C4.69 31 2.38 31 0 31 C0 20.77 0 10.54 0 0 Z " fill="#F9F3F4" transform="translate(524,783)"/>
<path d="M0 0 C3.3 0 6.6 0 10 0 C11.56861844 4.25339842 13.13514517 8.50755891 14.69970703 12.76245117 C15.23265552 14.21090696 15.76618298 15.65914984 16.30029297 17.10717773 C17.06628987 19.18418047 17.83022617 21.26193083 18.59375 23.33984375 C18.83436157 23.99089584 19.07497314 24.64194794 19.32287598 25.31272888 C21 29.88612829 21 29.88612829 21 31 C18.36 31 15.72 31 13 31 C12.79632812 30.35546875 12.59265625 29.7109375 12.3828125 29.046875 C11.1332065 26.68846128 11.1332065 26.68846128 8.1796875 26.390625 C7.08914063 26.34421875 5.99859375 26.2978125 4.875 26.25 C3.77929688 26.19328125 2.68359375 26.1365625 1.5546875 26.078125 C0.71164062 26.05234375 -0.13140625 26.0265625 -1 26 C-1.33 27.65 -1.66 29.3 -2 31 C-4.64 31 -7.28 31 -10 31 C-9.39983288 26.75734394 -8.40522383 22.96638623 -6.93359375 18.9453125 C-6.53076172 17.83671875 -6.12792969 16.728125 -5.71289062 15.5859375 C-5.29201172 14.44382812 -4.87113281 13.30171875 -4.4375 12.125 C-4.01275391 10.9596875 -3.58800781 9.794375 -3.15039062 8.59375 C-2.1048911 5.72743669 -1.05462612 2.86296514 0 0 Z " fill="#F9F2F2" transform="translate(608,783)"/>
<path d="M0 0 C1.23556641 0.01740234 1.23556641 0.01740234 2.49609375 0.03515625 C3.32238281 0.04417969 4.14867187 0.05320312 5 0.0625 C5.63808594 0.07410156 6.27617187 0.08570313 6.93359375 0.09765625 C9.66898771 6.70677582 12.19385556 13.39306151 14.68359375 20.09765625 C15.00142822 20.94690674 15.3192627 21.79615723 15.64672852 22.67114258 C15.94248779 23.47189209 16.23824707 24.2726416 16.54296875 25.09765625 C16.94467285 26.18046875 16.94467285 26.18046875 17.35449219 27.28515625 C17.93359375 29.09765625 17.93359375 29.09765625 17.93359375 31.09765625 C15.29359375 31.09765625 12.65359375 31.09765625 9.93359375 31.09765625 C9.43859375 28.62265625 9.43859375 28.62265625 8.93359375 26.09765625 C4.64359375 26.09765625 0.35359375 26.09765625 -4.06640625 26.09765625 C-4.39640625 27.74765625 -4.72640625 29.39765625 -5.06640625 31.09765625 C-7.70640625 31.09765625 -10.34640625 31.09765625 -13.06640625 31.09765625 C-11.04978416 24.17168593 -8.83306849 17.34024605 -6.44140625 10.53515625 C-6.12945312 9.63474609 -5.8175 8.73433594 -5.49609375 7.80664062 C-5.19703125 6.95263672 -4.89796875 6.09863281 -4.58984375 5.21875 C-4.32091309 4.44974365 -4.05198242 3.6807373 -3.77490234 2.88842773 C-2.68228422 0.12676201 -2.68228422 0.12676201 0 0 Z " fill="#F9F1F2" transform="translate(418.06640625,782.90234375)"/>
<path d="M0 0 C2.97 0 5.94 0 9 0 C11.82677646 6.21640664 14.39468531 12.46611796 16.75 18.875 C17.06582031 19.71546875 17.38164063 20.5559375 17.70703125 21.421875 C18.00480469 22.22882812 18.30257812 23.03578125 18.609375 23.8671875 C19.0110791 24.95169189 19.0110791 24.95169189 19.42089844 26.05810547 C20 28 20 28 20 31 C17.36 31 14.72 31 12 31 C11.505 28.525 11.505 28.525 11 26 C9.04081032 26.05991406 7.08248471 26.14867138 5.125 26.25 C4.03445313 26.29640625 2.94390625 26.3428125 1.8203125 26.390625 C-1.1332065 26.68846128 -1.1332065 26.68846128 -2.3828125 29.046875 C-2.58648437 29.69140625 -2.79015625 30.3359375 -3 31 C-5.64 31 -8.28 31 -11 31 C-8.73636641 24.09484644 -6.30988349 17.26127297 -3.8125 10.4375 C-3.44447266 9.42880859 -3.07644531 8.42011719 -2.69726562 7.38085938 C-1.79928712 4.92016504 -0.90017838 2.45989023 0 0 Z " fill="#FAF2F3" transform="translate(500,783)"/>
<path d="M0 0 C2.64 0 5.28 0 8 0 C8.33 3.63 8.66 7.26 9 11 C9.56589844 10.28972656 10.13179688 9.57945312 10.71484375 8.84765625 C11.44832031 7.92855469 12.18179687 7.00945313 12.9375 6.0625 C13.66839844 5.14597656 14.39929688 4.22945312 15.15234375 3.28515625 C17 1 17 1 18 0 C19.51928038 -0.07179964 21.04167482 -0.08392007 22.5625 -0.0625 C23.38878906 -0.05347656 24.21507812 -0.04445313 25.06640625 -0.03515625 C25.70449219 -0.02355469 26.34257812 -0.01195312 27 0 C23.46386286 4.78775956 19.85516296 9.46451416 16 14 C17.6708229 17.79148274 20.10970192 20.92940296 22.625 24.1875 C27 29.87097393 27 29.87097393 27 31 C21.4507772 31.96891192 21.4507772 31.96891192 18 31 C14.48356078 27.68947839 11.72850186 23.97342115 9 20 C8.67 23.63 8.34 27.26 8 31 C5.36 31 2.72 31 0 31 C0 20.77 0 10.54 0 0 Z " fill="#F9F0F1" transform="translate(376,783)"/>
<path d="M0 0 C3.98655319 1.95830683 6.75696948 4.13700299 9 8 C9 8.99 9 9.98 9 11 C3.59895833 11.265625 3.59895833 11.265625 1 11 C0 10 -1 9 -2 8 C-4.84209247 7.53912014 -7.07546495 7.72147285 -10 8 C-12.06520632 11.09780948 -12.29477024 11.9540481 -12.3125 15.5 C-12.32925781 16.2734375 -12.34601562 17.046875 -12.36328125 17.84375 C-11.90961173 20.5364981 -11.18763342 21.40076454 -9 23 C-5.5 23.5 -5.5 23.5 -2 23 C-1.525625 22.505 -1.05125 22.01 -0.5625 21.5 C1.46352076 19.55502007 2.43218429 19.79804904 5.1875 19.8125 C7.0746875 19.9053125 7.0746875 19.9053125 9 20 C7.75892597 24.96429611 6.23893588 27.13871828 2 30 C-1.94650367 31.97325184 -6.69866713 31.44349901 -11 31 C-16.14853681 28.4257316 -19.182008 25.45397599 -21 20 C-21.52166057 15.03139685 -21.5724051 11.14481021 -19.3125 6.625 C-18.549375 5.75875 -17.78625 4.8925 -17 4 C-16.34 3.21625 -15.68 2.4325 -15 1.625 C-10.17622912 -0.9878759 -5.35825722 -0.72605111 0 0 Z " fill="#F8EFF0" transform="translate(586,783)"/>
<path d="M0 0 C3.125 1.125 3.125 1.125 5 3 C5.8125 6.1875 5.8125 6.1875 6 9 C3.36 9 0.72 9 -2 9 C-2.33 8.34 -2.66 7.68 -3 7 C-4.65 7 -6.3 7 -8 7 C-8 7.99 -8 8.98 -8 10 C-7.16855469 10.31453125 -6.33710937 10.6290625 -5.48046875 10.953125 C-4.39378906 11.38109375 -3.30710937 11.8090625 -2.1875 12.25 C-0.56908203 12.87648438 -0.56908203 12.87648438 1.08203125 13.515625 C4.09725552 15.04947402 5.40167613 16.0509799 7 19 C6.92806179 23.02853967 6.63067947 25.22690903 4.0625 28.375 C-0.31070978 31.82055922 -4.61097988 31.45827888 -10 31 C-13 29.875 -13 29.875 -15 28 C-16.3125 24.8125 -16.3125 24.8125 -17 22 C-14.03 22 -11.06 22 -8 22 C-7.67 22.66 -7.34 23.32 -7 24 C-5.35 24 -3.7 24 -2 24 C-2.08185914 22.03500518 -2.08185914 22.03500518 -3 20 C-5.72137041 18.76341638 -8.46272169 18.03761852 -11.3359375 17.22265625 C-14.65397375 15.69986249 -15.53788678 14.30218769 -17 11 C-17 6.93536918 -16.61328559 4.79727127 -14.125 1.5625 C-9.44422697 -0.77788651 -5.13416554 -0.62442554 0 0 Z " fill="#F9F0F1" transform="translate(648,783)"/>
<path d="M0 0 C7.92 0 15.84 0 24 0 C24 1.98 24 3.96 24 6 C21.36 6 18.72 6 16 6 C16 14.25 16 22.5 16 31 C13.36 31 10.72 31 8 31 C8 22.75 8 14.5 8 6 C5.36 6 2.72 6 0 6 C0 4.02 0 2.04 0 0 Z " fill="#F7F0F1" transform="translate(438,783)"/>
<path d="M0 0 C7.92 0 15.84 0 24 0 C24 1.98 24 3.96 24 6 C21.36 6 18.72 6 16 6 C16 14.25 16 22.5 16 31 C13.69 31 11.38 31 9 31 C9 22.75 9 14.5 9 6 C6.03 6 3.06 6 0 6 C0 4.02 0 2.04 0 0 Z " fill="#FDF8F8" transform="translate(657,783)"/>
<path d="M0 0 C7.92 0 15.84 0 24 0 C24 1.98 24 3.96 24 6 C21.03 6 18.06 6 15 6 C15 14.25 15 22.5 15 31 C12.69 31 10.38 31 8 31 C8 22.75 8 14.5 8 6 C5.36 6 2.72 6 0 6 C0 4.02 0 2.04 0 0 Z " fill="#FDF8F9" transform="translate(464,783)"/>
<path d="M0 0 C2.42210697 0.4413161 3.16376404 1.58595212 4.84375 3.3359375 C7.51836922 3.914813 10.10619633 4.11154785 12.84375 4.3359375 C13.17375 3.6759375 13.50375 3.0159375 13.84375 2.3359375 C13.84375 3.3259375 13.84375 4.3159375 13.84375 5.3359375 C11.20375 5.3359375 8.56375 5.3359375 5.84375 5.3359375 C5.51375 7.3159375 5.18375 9.2959375 4.84375 11.3359375 C6.30192797 11.50395801 7.7602984 11.67030893 9.21875 11.8359375 C10.03085937 11.92875 10.84296875 12.0215625 11.6796875 12.1171875 C13.81287825 12.36946101 13.81287825 12.36946101 15.84375 12.3359375 C16.83375 12.3359375 17.82375 12.3359375 18.84375 12.3359375 C19.17375 10.3559375 19.50375 8.3759375 19.84375 6.3359375 C20.50375 6.6659375 21.16375 6.9959375 21.84375 7.3359375 C19.86375 12.6159375 17.88375 17.8959375 15.84375 23.3359375 C14.52375 22.6759375 13.20375 22.0159375 11.84375 21.3359375 C11.18375 21.9959375 10.52375 22.6559375 9.84375 23.3359375 C8.85375 23.0059375 7.86375 22.6759375 6.84375 22.3359375 C7.4625 21.5934375 8.08125 20.8509375 8.71875 20.0859375 C10.44812281 17.84792562 11.70481661 15.89853763 12.84375 13.3359375 C7.57099486 13.44935851 7.57099486 13.44935851 3.28125 15.8984375 C1.84375 17.3359375 1.84375 17.3359375 -1.59375 17.7734375 C-5.15625 17.3359375 -5.15625 17.3359375 -7.59375 15.8984375 C-9.91823611 12.08628029 -9.78673504 8.68548621 -9.15625 4.3359375 C-7.36546602 -0.25294645 -4.47997218 -0.21101318 0 0 Z " fill="#620914" transform="translate(582.15625,789.6640625)"/>
<path d="M0 0 C1.084021 0.00523682 2.16804199 0.01047363 3.28491211 0.01586914 C5.03964844 0.02070312 5.03964844 0.02070312 6.82983398 0.02563477 C8.0615332 0.03401367 9.29323242 0.04239258 10.56225586 0.05102539 C12.41560547 0.05779297 12.41560547 0.05779297 14.30639648 0.06469727 C17.37089703 0.07652931 20.43530307 0.09301366 23.49975586 0.11352539 C23.49975586 2.75352539 23.49975586 5.39352539 23.49975586 8.11352539 C20.85975586 8.11352539 18.21975586 8.11352539 15.49975586 8.11352539 C15.49975586 16.03352539 15.49975586 23.95352539 15.49975586 32.11352539 C14.50975586 32.11352539 13.51975586 32.11352539 12.49975586 32.11352539 C12.82975586 23.86352539 13.15975586 15.61352539 13.49975586 7.11352539 C16.46975586 7.11352539 19.43975586 7.11352539 22.49975586 7.11352539 C22.49975586 5.13352539 22.49975586 3.15352539 22.49975586 1.11352539 C14.57975586 1.11352539 6.65975586 1.11352539 -1.50024414 1.11352539 C-1.50024414 3.09352539 -1.50024414 5.07352539 -1.50024414 7.11352539 C1.13975586 7.11352539 3.77975586 7.11352539 6.49975586 7.11352539 C6.49975586 15.36352539 6.49975586 23.61352539 6.49975586 32.11352539 C6.16975586 32.11352539 5.83975586 32.11352539 5.49975586 32.11352539 C5.00475586 20.72852539 5.00475586 20.72852539 4.49975586 9.11352539 C0.04475586 9.60852539 0.04475586 9.60852539 -4.50024414 10.11352539 C-8.56274414 9.17602539 -8.56274414 9.17602539 -11.50024414 8.11352539 C-11.50024414 7.78352539 -11.50024414 7.45352539 -11.50024414 7.11352539 C-8.86024414 7.11352539 -6.22024414 7.11352539 -3.50024414 7.11352539 C-3.52086914 6.14415039 -3.54149414 5.17477539 -3.56274414 4.17602539 C-3.48074456 0.15804572 -3.48074456 0.15804572 0 0 Z " fill="#74353C" transform="translate(465.500244140625,781.886474609375)"/>
<path d="M0 0 C0.33 0 0.66 0 1 0 C1 1.98 1 3.96 1 6 C3.97 6 6.94 6 10 6 C10 14.25 10 22.5 10 31 C9.67 31 9.34 31 9 31 C8.505 19.615 8.505 19.615 8 8 C3.545 8.495 3.545 8.495 -1 9 C-5.0625 8.0625 -5.0625 8.0625 -8 7 C-8 6.67 -8 6.34 -8 6 C-5.36 6 -2.72 6 0 6 C0 4.02 0 2.04 0 0 Z " fill="#651F29" transform="translate(462,783)"/>
<path d="M0 0 C2.5625 0.1875 2.5625 0.1875 4.5625 2.1875 C4.00694444 6.74305556 4.00694444 6.74305556 2.5625 8.1875 C0.125 8.375 0.125 8.375 -2.4375 8.1875 C-3.0975 7.5275 -3.7575 6.8675 -4.4375 6.1875 C-3.71780303 0.28598485 -3.71780303 0.28598485 0 0 Z " fill="#FDF6F7" transform="translate(688.4375,805.8125)"/>
<path d="M0 0 C0.66 0 1.32 0 2 0 C3.46582355 2.14281033 4.81123514 4.26706396 6.125 6.5 C6.49753906 7.12003906 6.87007812 7.74007812 7.25390625 8.37890625 C8.17578953 9.91537838 9.08873475 11.45720675 10 13 C9.01 13.495 9.01 13.495 8 14 C7.401875 13.360625 6.80375 12.72125 6.1875 12.0625 C4.09189663 9.79689611 4.09189663 9.79689611 1 9 C1 11.97 1 14.94 1 18 C0.67 18 0.34 18 0 18 C0 12.06 0 6.12 0 0 Z " fill="#702D36" transform="translate(531,796)"/>
<path d="M0 0 C4.75 0.75 4.75 0.75 7 3 C6.625 5.125 6.625 5.125 6 7 C4.35 7 2.7 7 1 7 C0.67 6.01 0.34 5.02 0 4 C-2.97 4 -5.94 4 -9 4 C-9 3.67 -9 3.34 -9 3 C-6.36 3 -3.72 3 -1 3 C-0.67 2.01 -0.34 1.02 0 0 Z " fill="#712731" transform="translate(640,801)"/>
<path d="M0 0 C0.66 0 1.32 0 2 0 C2.99 3.63 3.98 7.26 5 11 C2.36 11 -0.28 11 -3 11 C-2.01 7.37 -1.02 3.74 0 0 Z " fill="#733039" transform="translate(612,792)"/>
<path d="M0 0 C0.66 0 1.32 0 2 0 C2.99 3.63 3.98 7.26 5 11 C2.36 11 -0.28 11 -3 11 C-2.01 7.37 -1.02 3.74 0 0 Z " fill="#723138" transform="translate(504,792)"/>
<path d="M0 0 C2.3129482 2.3129482 2.49580975 3.47904875 3.125 6.625 C3.29257812 7.44226563 3.46015625 8.25953125 3.6328125 9.1015625 C3.81457031 10.04128906 3.81457031 10.04128906 4 11 C1.69 11 -0.62 11 -3 11 C-2.44894091 7.0507432 -1.61064629 3.65079826 0 0 Z " fill="#6B202B" transform="translate(420,792)"/>
<path d="M0 0 C1.16015625 0.05478516 2.3203125 0.10957031 3.515625 0.16601562 C4.7221875 0.23884766 5.92875 0.31167969 7.171875 0.38671875 C9.00492187 0.47856445 9.00492187 0.47856445 10.875 0.57226562 C13.89165858 0.72545532 16.90677314 0.89329996 19.921875 1.07421875 C19.921875 1.40421875 19.921875 1.73421875 19.921875 2.07421875 C10.021875 2.40421875 0.121875 2.73421875 -10.078125 3.07421875 C-5.73098033 -0.18613975 -5.0990654 -0.27494961 0 0 Z " fill="#6C252F" transform="translate(340.078125,473.92578125)"/>
<path d="M0 0 C3.76430913 1.25476971 4.05044108 2.69422618 6 6 C6.66 6 7.32 6 8 6 C8.33 6.99 8.66 7.98 9 9 C7.625 10.5 7.625 10.5 6 12 C5.34 12 4.68 12 4 12 C2.68 8.04 1.36 4.08 0 0 Z " fill="#68131E" transform="translate(624,801)"/>
<path d="M0 0 C4.62 0 9.24 0 14 0 C14 0.66 14 1.32 14 2 C14.66 2 15.32 2 16 2 C16 2.66 16 3.32 16 4 C10.43109483 3.52013969 5.32932432 2.70084819 0 1 C0 0.67 0 0.34 0 0 Z " fill="#6F1E2B" transform="translate(502,611)"/>
<path d="M0 0 C6.75 0.75 6.75 0.75 9 3 C8.8125 5.0625 8.8125 5.0625 8 7 C7.01 7.33 6.02 7.66 5 8 C2.525 4.04 2.525 4.04 0 0 Z " fill="#620B16" transform="translate(627,359)"/>
<path d="M0 0 C0.33 0 0.66 0 1 0 C1.27263672 1.16015625 1.27263672 1.16015625 1.55078125 2.34375 C3.01685262 8.4185483 4.65973387 14.2050553 7 20 C6.34 20 5.68 20 5 20 C5 19.34 5 18.68 5 18 C4.34 18 3.68 18 3 18 C3 17.01 3 16.02 3 15 C2.34 15 1.68 15 1 15 C0.67 10.05 0.34 5.1 0 0 Z " fill="#6D242F" transform="translate(274,677)"/>
<path d="M0 0 C3.28788824 3.11016455 5.83735988 6.01618925 8 10 C5.61435923 9.42415568 3.33317216 8.77772405 1 8 C-0.25 5.0625 -0.25 5.0625 -1 2 C-0.67 1.34 -0.34 0.68 0 0 Z " fill="#650E1A" transform="translate(386,804)"/>
<path d="M0 0 C0.33 1.32 0.66 2.64 1 4 C-4.52967941 4.71033431 -9.49983036 5.30267176 -15 4 C-15 3.67 -15 3.34 -15 3 C-13.87851562 2.80083984 -13.87851562 2.80083984 -12.734375 2.59765625 C-11.25710938 2.33275391 -11.25710938 2.33275391 -9.75 2.0625 C-8.77546875 1.88847656 -7.8009375 1.71445312 -6.796875 1.53515625 C-4.50278205 1.09620271 -2.25708029 0.59651408 0 0 Z " fill="#70232E" transform="translate(735,730)"/>
<path d="M0 0 C1.65 0 3.3 0 5 0 C5.33 0.66 5.66 1.32 6 2 C5.67 2.66 5.34 3.32 5 4 C5.66 4.33 6.32 4.66 7 5 C4.6875 5.625 4.6875 5.625 2 6 C1.01 5.34 0.02 4.68 -1 4 C-0.67 2.68 -0.34 1.36 0 0 Z " fill="#691D26" transform="translate(640,789)"/>
<path d="M0 0 C0.8125 1.6875 0.8125 1.6875 1 4 C-1.0625 6.4375 -1.0625 6.4375 -4 9 C-4.51691406 9.48339844 -5.03382813 9.96679688 -5.56640625 10.46484375 C-7.125 11.875 -7.125 11.875 -10 14 C-10.99 13.67 -11.98 13.34 -13 13 C-12.31292969 12.39671875 -11.62585938 11.7934375 -10.91796875 11.171875 C-10.01691406 10.37265625 -9.11585938 9.5734375 -8.1875 8.75 C-6.84751953 7.56664062 -6.84751953 7.56664062 -5.48046875 6.359375 C-3.35871775 4.34120555 -1.65745577 2.40083295 0 0 Z " fill="#621821" transform="translate(574,575)"/>
<path d="M0 0 C0.33 1.32 0.66 2.64 1 4 C-0.43671568 4.64757625 -1.87440416 5.29299453 -3.3125 5.9375 C-4.11300781 6.29714844 -4.91351562 6.65679688 -5.73828125 7.02734375 C-8 8 -8 8 -11 9 C-11.66 8.34 -12.32 7.68 -13 7 C-12.14535156 6.57847656 -11.29070313 6.15695312 -10.41015625 5.72265625 C-9.30542969 5.17480469 -8.20070313 4.62695312 -7.0625 4.0625 C-5.96035156 3.51722656 -4.85820313 2.97195313 -3.72265625 2.41015625 C-1.15205586 1.25295022 -1.15205586 1.25295022 0 0 Z " fill="#631923" transform="translate(611,722)"/>
<path d="M0 0 C4.95 0.99 4.95 0.99 10 2 C9.01 2.495 9.01 2.495 8 3 C8.7763932 6.0745356 8.7763932 6.0745356 11 8 C7.24026115 8 6.54322371 7.03457593 3.8125 4.5625 C3.09707031 3.92441406 2.38164063 3.28632813 1.64453125 2.62890625 C1.10183594 2.09136719 0.55914063 1.55382812 0 1 C0 0.67 0 0.34 0 0 Z " fill="#641721" transform="translate(614,346)"/>
<path d="M0 0 C1 4 1 4 0 7 C-0.66 7 -1.32 7 -2 7 C-2.33 5.35 -2.66 3.7 -3 2 C-5.97 2 -8.94 2 -12 2 C-12 1.67 -12 1.34 -12 1 C-6.06 0.505 -6.06 0.505 0 0 Z " fill="#61121C" transform="translate(621,781)"/>
<path d="M0 0 C0 0.66 0 1.32 0 2 C-0.66 2 -1.32 2 -2 2 C-2.4021875 3.11375 -2.4021875 3.11375 -2.8125 4.25 C-3.94229421 6.86636554 -5.20893202 8.80187111 -7 11 C-7.3125 8.3125 -7.3125 8.3125 -7 5 C-2.86956522 0 -2.86956522 0 0 0 Z " fill="#631823" transform="translate(593,516)"/>
<path d="M0 0 C0.33 0 0.66 0 1 0 C1.25 6.625 1.25 6.625 -1 10 C-1.38499891 11.65549531 -1.72793135 13.3222433 -2 15 C-2.66 14.67 -3.32 14.34 -4 14 C-3.52525225 11.85318469 -3.04508251 9.70756772 -2.5625 7.5625 C-2.29566406 6.36753906 -2.02882813 5.17257812 -1.75390625 3.94140625 C-1 1 -1 1 0 0 Z " fill="#6A222E" transform="translate(780,678)"/>
<path d="M0 0 C0.66 0.33 1.32 0.66 2 1 C2.3125 3.3125 2.3125 3.3125 2 6 C-0.375 7.875 -0.375 7.875 -3 9 C-3.66 8.67 -4.32 8.34 -5 8 C-3.35 5.36 -1.7 2.72 0 0 Z " fill="#600D19" transform="translate(580,566)"/>
<path d="M0 0 C0.33 0.99 0.66 1.98 1 3 C0.67 3.66 0.34 4.32 0 5 C-0.66 5 -1.32 5 -2 5 C-2 6.65 -2 8.3 -2 10 C-3.32 9.67 -4.64 9.34 -6 9 C-4.47291037 5.56404834 -2.40072955 2.88087546 0 0 Z " fill="#63131D" transform="translate(401,785)"/>
<path d="M0 0 C3.63 0 7.26 0 11 0 C11 0.33 11 0.66 11 1 C10.40832031 1.02578125 9.81664062 1.0515625 9.20703125 1.078125 C3.9279987 1.45704414 0.89363339 2.10636661 -3 6 C-3.33 4.68 -3.66 3.36 -4 2 C-3.01 2.33 -2.02 2.66 -1 3 C-0.67 2.01 -0.34 1.02 0 0 Z " fill="#631A22" transform="translate(392,782)"/>
<path d="M0 0 C0 1.66666667 0 3.33333333 0 5 C-0.66 5 -1.32 5 -2 5 C-2 5.66 -2 6.32 -2 7 C-3.62626404 8.38232443 -5.2925002 9.71937515 -7 11 C-7.66 10.67 -8.32 10.34 -9 10 C-6.03 6.7 -3.06 3.4 0 0 Z " fill="#EFDCDD" transform="translate(434,350)"/>
<path d="M0 0 C1.2065625 0.0309375 1.2065625 0.0309375 2.4375 0.0625 C1.4475 0.7225 0.4575 1.3825 -0.5625 2.0625 C-1.29593428 5.12806598 -1.29593428 5.12806598 -1.5625 8.0625 C-2.5525 7.4025 -3.5425 6.7425 -4.5625 6.0625 C-3.48963568 0.08511307 -3.48963568 0.08511307 0 0 Z " fill="#F5E0E2" transform="translate(688.5625,805.9375)"/>
<path d="M0 0 C2.31 0.33 4.62 0.66 7 1 C7 2.65 7 4.3 7 6 C3.73539027 4.19587357 2.11070205 3.16605307 0 0 Z " fill="#610E19" transform="translate(478,596)"/>
<path d="M0 0 C-0.53625 0.2475 -1.0725 0.495 -1.625 0.75 C-4.56424252 2.29696975 -7.25754408 4.13014369 -10 6 C-10 3 -10 3 -8.375 1.3125 C-5.41801336 -0.32162419 -3.32820054 -0.22692276 0 0 Z " fill="#651724" transform="translate(464,516)"/>
<path d="M0 0 C0.66 0 1.32 0 2 0 C1.71640113 1.4391134 1.42278601 2.87625518 1.125 4.3125 C0.88136719 5.51326172 0.88136719 5.51326172 0.6328125 6.73828125 C0 9 0 9 -2 12 C-2 9.36 -2 6.72 -2 4 C-1.34 4 -0.68 4 0 4 C0 2.68 0 1.36 0 0 Z " fill="#61131E" transform="translate(277,515)"/>
<path d="M0 0 C1.02104551 0.97850195 2.0206121 1.97980427 3 3 C3 3.33 3 3.66 3 4 C1.54257537 4.08096803 0.08387193 4.13917774 -1.375 4.1875 C-2.18710937 4.22230469 -2.99921875 4.25710938 -3.8359375 4.29296875 C-4.55007813 4.19628906 -5.26421875 4.09960938 -6 4 C-6.66 3.01 -7.32 2.02 -8 1 C-6.576875 1.309375 -6.576875 1.309375 -5.125 1.625 C-4.09375 1.74875 -3.0625 1.8725 -2 2 C-1.34 1.34 -0.68 0.68 0 0 Z " fill="#F8E5E5" transform="translate(400,810)"/>
<path d="M0 0 C1.32 0 2.64 0 4 0 C4.33 1.32 4.66 2.64 5 4 C4.01 4.33 3.02 4.66 2 5 C1.01 4.01 0.02 3.02 -1 2 C-0.67 1.34 -0.34 0.68 0 0 Z " fill="#640C19" transform="translate(507,809)"/>
<path d="M0 0 C-3.28463659 2.18975773 -6.20696275 2.99806563 -10 4 C-10 2 -10 2 -8.375 0.3125 C-5.22166664 -1.43013159 -3.41580961 -0.8539524 0 0 Z " fill="#5D0F18" transform="translate(466,333)"/>
<path d="M0 0 C0.66 0.33 1.32 0.66 2 1 C2 1.66 2 2.32 2 3 C3.98 2.01 5.96 1.02 8 0 C7.67 1.32 7.34 2.64 7 4 C4.36 4 1.72 4 -1 4 C-0.67 2.68 -0.34 1.36 0 0 Z " fill="#F1DBD9" transform="translate(490,810)"/>
<path d="M0 0 C0.99 0.66 1.98 1.32 3 2 C2.67 2.66 2.34 3.32 2 4 C-0.64 4 -3.28 4 -6 4 C-6.33 5.32 -6.66 6.64 -7 8 C-7 6.35 -7 4.7 -7 3 C-5.5459375 2.814375 -5.5459375 2.814375 -4.0625 2.625 C-2.5465625 2.315625 -2.5465625 2.315625 -1 2 C-0.67 1.34 -0.34 0.68 0 0 Z " fill="#5A0611" transform="translate(637,800)"/>
<path d="M0 0 C0.33 0 0.66 0 1 0 C1 2.31 1 4.62 1 7 C1.99 7.33 2.98 7.66 4 8 C2.68 9.32 1.36 10.64 0 12 C0 8.04 0 4.08 0 0 Z " fill="#580C15" transform="translate(384,783)"/>
<path d="M0 0 C-4.75 4 -4.75 4 -7 4 C-6.625 2.0625 -6.625 2.0625 -6 0 C-3.50907189 -1.24546405 -2.58919267 -0.7767578 0 0 Z " fill="#63111C" transform="translate(554,573)"/>
<path d="M0 0 C0.66 0 1.32 0 2 0 C3.12880057 3.31114834 4.21302675 6.58978257 5 10 C4.01 10.495 4.01 10.495 3 11 C2.49632243 9.54293274 1.99717444 8.08429904 1.5 6.625 C1.2215625 5.81289063 0.943125 5.00078125 0.65625 4.1640625 C0 2 0 2 0 0 Z " fill="#5C0E18" transform="translate(454,555)"/>
<path d="M0 0 C0.66 0.66 1.32 1.32 2 2 C1.01 4.64 0.02 7.28 -1 10 C-1.66 10 -2.32 10 -3 10 C-1.125 2.25 -1.125 2.25 0 0 Z " fill="#60131E" transform="translate(496,789)"/>
<path d="M0 0 C0.33 1.32 0.66 2.64 1 4 C0.01 4.33 -0.98 4.66 -2 5 C-2.33 5.99 -2.66 6.98 -3 8 C-3.66 8 -4.32 8 -5 8 C-3.62845496 5.04590299 -2.01136276 2.55991624 0 0 Z " fill="#641621" transform="translate(771,701)"/>
<path d="M0 0 C0.66 0 1.32 0 2 0 C2.33 1.32 2.66 2.64 3 4 C0.69 4 -1.62 4 -4 4 C-4 3.34 -4 2.68 -4 2 C-2.68 2 -1.36 2 0 2 C0 1.34 0 0.68 0 0 Z " fill="#6B2E36" transform="translate(421,799)"/>
<path d="M0 0 C7.50769231 -0.36923077 7.50769231 -0.36923077 10 1.5 C10.495 2.2425 10.495 2.2425 11 3 C9.741875 2.87625 8.48375 2.7525 7.1875 2.625 C6.12595703 2.52058594 6.12595703 2.52058594 5.04296875 2.4140625 C3 2 3 2 0 0 Z " fill="#78313D" transform="translate(502,611)"/>
<path d="M0 0 C0.99 0.33 1.98 0.66 3 1 C3.33 4.3 3.66 7.6 4 11 C1.54176828 7.31265242 0.98757384 4.30300029 0 0 Z " fill="#621420" transform="translate(775,506)"/>
<path d="M0 0 C0.33 0 0.66 0 1 0 C0.67 2.31 0.34 4.62 0 7 C-0.99 6.34 -1.98 5.68 -3 5 C-1.125 1.125 -1.125 1.125 0 0 Z " fill="#601620" transform="translate(394,794)"/>
<path d="M0 0 C0.8971875 0.5259375 0.8971875 0.5259375 1.8125 1.0625 C-3.8125 3.1875 -3.8125 3.1875 -7.1875 2.0625 C-4.72093412 -0.40406588 -3.34389711 -1.43309876 0 0 Z " fill="#64131F" transform="translate(555.1875,593.9375)"/>
<path d="M0 0 C1.485 0.99 1.485 0.99 3 2 C3.1875 4.625 3.1875 4.625 3 7 C2.34 7 1.68 7 1 7 C0.34 5.02 -0.32 3.04 -1 1 C-0.67 0.67 -0.34 0.34 0 0 Z " fill="#64111B" transform="translate(772,497)"/>
</svg>
