<?xml version="1.0" encoding="UTF-8"?>
<svg version="1.1" xmlns="http://www.w3.org/2000/svg" width="578" height="432">
<path d="M0 0 C0.00364563 0.91819519 0.00729126 1.83639038 0.01104736 2.78240967 C0.04890993 11.43447347 0.1057428 20.08615965 0.18390274 28.737957 C0.22341651 33.18599679 0.2555857 37.63383746 0.27099609 42.08203125 C0.28613722 46.37462525 0.32053683 50.66667197 0.36830902 54.95902252 C0.38314922 56.59682713 0.39104253 58.23470986 0.39188385 59.87258148 C0.39424746 62.16662479 0.42127478 64.45914813 0.45410156 66.75292969 C0.46298401 68.05864929 0.47186646 69.3643689 0.48101807 70.70965576 C1.08381781 74.53140472 2.12013831 75.55056627 5 78 C5 78.66 5 79.32 5 80 C5.99 80 6.98 80 8 80 C8.38285156 78.91332031 8.38285156 78.91332031 8.7734375 77.8046875 C12.79606722 68.60644502 21.94223006 59.39948826 31 55 C31.99 55 32.98 55 34 55 C34 54.34 34 53.68 34 53 C35.134375 52.46375 36.26875 51.9275 37.4375 51.375 C48.77972644 45.78149408 48.77972644 45.78149408 55.6875 35.8125 C55.93886719 35.09707031 56.19023437 34.38164062 56.44921875 33.64453125 C56.63097656 33.10183594 56.81273437 32.55914062 57 32 C57.66 32 58.32 32 59 32 C59.24234375 32.67546875 59.4846875 33.3509375 59.734375 34.046875 C63.06843257 42.92059747 66.4329296 45.9798537 75 50 C77.0450733 50.99301459 79.08656538 51.99342806 81.125 53 C82.09695313 53.474375 83.06890625 53.94875 84.0703125 54.4375 C93.80271078 59.62811242 103.62750467 66.74264313 107.51171875 77.3828125 C107.67285156 77.91648437 107.83398438 78.45015625 108 79 C112.43323215 76.52010492 112.43323215 76.52010492 116 73 C117.91733968 63.42065124 117.12095218 52.94460291 117.0625 43.1875 C117.05746824 41.70507966 117.05290834 40.22265764 117.04882812 38.74023438 C117.0379707 35.1601205 117.02080135 31.58007157 117 28 C117.99 27.505 117.99 27.505 119 27 C119.99 27.66 120.98 28.32 122 29 C122 29.66 122 30.32 122 31 C122.99 31.33 123.98 31.66 125 32 C125 32.66 125 33.32 125 34 C125.99 34.33 126.98 34.66 128 35 C129.22316467 37.77991971 128.94503622 39.86567961 128.75 42.9375 C128.66746611 46.61713613 128.93191237 46.91829484 131.5 50 C132.325 50.66 133.15 51.32 134 52 C134.99721481 43.46040179 134.99721481 43.46040179 132.51171875 35.546875 C130.17010387 33.23919657 127.93999743 31.46999871 125 30 C125 29.34 125 28.68 125 28 C124.401875 27.71125 123.80375 27.4225 123.1875 27.125 C121 26 121 26 118 24 C117.453125 20.8828125 117.453125 20.8828125 117.25 17.125 C117.17265625 15.89007813 117.0953125 14.65515625 117.015625 13.3828125 C117.0028612 10.61944909 117.14034017 8.59200462 118 6 C121.48591148 7.48995397 123.6963151 9.47583947 126.3359375 12.17578125 C127.15320313 13.00400391 127.97046875 13.83222656 128.8125 14.68554688 C129.658125 15.55244141 130.50375 16.41933594 131.375 17.3125 C133.04706649 19.01929402 134.72148882 20.72378381 136.3984375 22.42578125 C137.13755371 23.18286377 137.87666992 23.93994629 138.63818359 24.7199707 C140.98231532 27.15864472 140.98231532 27.15864472 144.25146484 28.92529297 C146.52753444 30.81536444 146.9673693 31.82573854 147.52072144 34.78086853 C147.700596 38.45985446 147.67409489 42.08729059 147.578125 45.76953125 C147.55969736 47.13325215 147.54310511 48.49699896 147.52825928 49.86076355 C147.49019935 52.7169291 147.43035284 55.57158449 147.35498047 58.42700195 C147.26053337 62.06843985 147.21943477 65.70812139 147.19481277 69.35062122 C147.16989126 72.16775994 147.11663474 74.98383504 147.0550766 77.80039024 C147.01644733 79.78968354 147.00104323 81.77938464 146.98614502 83.76899719 C146.73651855 91.62025341 145.66702395 96.42282126 140 102 C139.48181702 102.56310379 138.96363403 103.12620758 138.42974854 103.70637512 C137 105 137 105 135 105 C134.74605469 105.58265625 134.49210938 106.1653125 134.23046875 106.765625 C132.86679667 109.24188033 131.35774797 110.80520626 129.3125 112.75 C126.68215367 115.30989062 124.1822473 117.88527382 121.8125 120.6875 C118.02974269 125.09636887 113.89996228 129.12716743 109.7722168 133.20825195 C106.20384991 136.75182057 102.81522833 140.38053056 99.5625 144.21875 C97.29969234 146.79835073 94.85202768 149.17405403 92.3828125 151.5546875 C90.89145515 152.97109777 90.89145515 152.97109777 90 155 C89.34 155 88.68 155 88 155 C88 155.66 88 156.32 88 157 C87.34 157 86.68 157 86 157 C85.7525 157.61875 85.505 158.2375 85.25 158.875 C83.76259631 161.40358627 82.56321991 161.71839004 80 163 C78.8499169 164.96672915 78.8499169 164.96672915 78 167 C77.34 167.66 76.68 168.32 76 169 C72.22613893 168.73043849 70.32859817 166.73224926 67.75 164.125 C66.69039062 163.07699219 66.69039062 163.07699219 65.609375 162.0078125 C64 160 64 160 64 157 C65.875 154.8125 65.875 154.8125 68 153 C68.66 153 69.32 153 70 153 C70.226875 152.443125 70.45375 151.88625 70.6875 151.3125 C72.37550036 148.33840412 74.46676517 146.27991135 77 144 C77.66 144 78.32 144 79 144 C79.33 143.01 79.66 142.02 80 141 C80.66 141 81.32 141 82 141 C82 140.34 82 139.68 82 139 C83.36328125 137.66015625 83.36328125 137.66015625 85.3125 136.0625 C88.92534855 132.98417271 92.37700209 129.77525 95.75 126.4375 C96.65234375 125.54933594 97.5546875 124.66117187 98.484375 123.74609375 C101.01084875 120.98815734 102.93145821 118.1070342 105 115 C106.9296875 113.12890625 106.9296875 113.12890625 108.875 111.5625 C112.2607932 108.73258329 115.0478557 105.74923368 117.7734375 102.28515625 C118.17820312 101.86105469 118.58296875 101.43695313 119 101 C119.66 101 120.32 101 121 101 C121.33 100.01 121.66 99.02 122 98 C123.65788785 96.65576661 125.32576317 95.32381517 127 94 C128.34736973 92.34466005 129.68334336 90.67987227 131 89 C131.66 88.67 132.32 88.34 133 88 C133.31320385 84.25227692 133.56814264 80.502791 133.8125 76.75 C133.90208984 75.68652344 133.99167969 74.62304688 134.08398438 73.52734375 C134.14521484 72.50253906 134.20644531 71.47773438 134.26953125 70.421875 C134.33760986 69.47924805 134.40568848 68.53662109 134.47583008 67.56542969 C134.14495166 64.2223663 134.14495166 64.2223663 129 61 C129 68.59 129 76.18 129 84 C127.02 84.99 127.02 84.99 125 86 C124.67 86.99 124.34 87.98 124 89 C122.29296875 90.6484375 122.29296875 90.6484375 120.1875 92.375 C117.03387405 95.04216238 114.57168491 97.76465446 112 101 C110.91195371 101.95616189 109.80591008 102.89203861 108.6875 103.8125 C106.13167221 105.93358091 103.9392832 108.12816403 101.796875 110.6640625 C97.90996026 115.16331708 93.7766657 119.37109307 89.5625 123.5625 C88.85029297 124.27857422 88.13808594 124.99464844 87.40429688 125.73242188 C83.30510235 129.82417009 79.11052192 133.74101452 74.71142578 137.5090332 C71.37961873 140.41165027 68.36277862 143.62034796 65.3125 146.8125 C63 149 63 149 61 149 C60.67 149.99 60.34 150.98 60 152 C55.72185659 151.50236873 53.89470344 150.33315555 51 147.1875 C48.86483037 144.93260124 46.88997684 142.91412826 44.4375 141 C42.32302727 139.26504801 40.75960238 137.63186123 39 135.5625 C35.64422987 131.63883031 32.08224759 127.96498701 28.4375 124.3125 C27.89544922 123.76601807 27.35339844 123.21953613 26.79492188 122.65649414 C23.34797677 119.22156112 19.77316156 116.07281934 16 113 C14.125 111.3125 14.125 111.3125 13 110 C13 109.34 13 108.68 13 108 C12.44280273 107.76732422 11.88560547 107.53464844 11.31152344 107.29492188 C8.40076355 105.66430607 6.37818867 103.63760806 4.015625 101.28125 C2.61376953 99.88326172 2.61376953 99.88326172 1.18359375 98.45703125 C0.46212158 97.7292749 0.46212158 97.7292749 -0.27392578 96.98681641 C-1.75204848 95.49793661 -3.24059911 94.02008349 -4.73046875 92.54296875 C-5.65988281 91.61097656 -6.58929688 90.67898437 -7.546875 89.71875 C-8.40120117 88.86216797 -9.25552734 88.00558594 -10.13574219 87.12304688 C-12 85 -12 85 -12 83 C-12.66 83 -13.32 83 -14 83 C-13.9278125 82.3915625 -13.855625 81.783125 -13.78125 81.15625 C-12.89175952 72.75550659 -12.90475611 64.434376 -13 56 C-13.66 56 -14.32 56 -15 56 C-18.5057577 65.52434349 -19.90561491 80.45973699 -16.18847656 90.10595703 C-14.07861094 93.50004497 -11.20422755 95.70253319 -8 98 C-6.31368833 99.65006149 -4.65377898 101.31776569 -3 103 C-1.69522921 104.31151818 -0.38965375 105.62223606 0.91650391 106.93237305 C1.647211 107.66630783 2.37791809 108.40024261 3.13076782 109.15641785 C6.42555016 112.46455214 9.72295299 115.77006904 13.02050781 119.07543945 C14.76130687 120.82129707 16.50121161 122.56804686 18.24023438 124.31567383 C20.75416817 126.84170297 23.27128745 129.36451904 25.7890625 131.88671875 C26.56722321 132.67004074 27.34538391 133.45336273 28.14712524 134.26042175 C29.2337294 135.34713921 29.2337294 135.34713921 30.34228516 136.45581055 C30.97784332 137.09358932 31.61340149 137.7313681 32.26821899 138.38847351 C34.11186731 140.19066961 34.11186731 140.19066961 37 142 C37 142.66 37 143.32 37 144 C37.55429687 144.22042969 38.10859375 144.44085938 38.6796875 144.66796875 C41.7547243 146.43326765 43.74645392 148.68899917 46.125 151.3125 C46.99382812 152.25738281 47.86265625 153.20226562 48.7578125 154.17578125 C50.82628523 156.78119202 51.98233444 158.86124499 53 162 C52.01 161.67 51.02 161.34 50 161 C49.7525 161.5775 49.505 162.155 49.25 162.75 C47.77179527 165.41076851 46.41685961 167.13556544 44 169 C39.61372826 168.7273043 37.60349775 167.09863409 34.57421875 164.03515625 C33.77822266 163.23529297 32.98222656 162.43542969 32.16210938 161.61132812 C31.34548828 160.77021484 30.52886719 159.92910156 29.6875 159.0625 C28.43356445 157.80663086 28.43356445 157.80663086 27.15429688 156.52539062 C21 150.28066327 21 150.28066327 21 148 C20.01 147.67 19.02 147.34 18 147 C18 146.34 18 145.68 18 145 C17.01 144.67 16.02 144.34 15 144 C15 143.34 15 142.68 15 142 C14.41573242 141.74025391 13.83146484 141.48050781 13.22949219 141.21289062 C10.84438836 139.915344 9.24809363 138.50658878 7.328125 136.59375 C6.66425781 135.93246094 6.00039062 135.27117187 5.31640625 134.58984375 C4.63449219 133.90019531 3.95257813 133.21054688 3.25 132.5 C2.55261719 131.81035156 1.85523438 131.12070313 1.13671875 130.41015625 C0.14865234 129.41822266 0.14865234 129.41822266 -0.859375 128.40625 C-1.46233398 127.80103516 -2.06529297 127.19582031 -2.68652344 126.57226562 C-4 125 -4 125 -4 123 C-4.66 123 -5.32 123 -6 123 C-7.625 121.625 -7.625 121.625 -9 120 C-9 119.34 -9 118.68 -9 118 C-10.485 117.505 -10.485 117.505 -12 117 C-14.1875 115.0625 -14.1875 115.0625 -16 113 C-16 112.34 -16 111.68 -16 111 C-16.66 111 -17.32 111 -18 111 C-19.3440093 109.00715862 -20.67541292 107.00580329 -22 105 C-23.62746694 103.29503463 -25.28891311 101.62102968 -27 100 C-34.00732901 92.99267099 -30.42254159 67.08698004 -30.51489258 57.67895508 C-30.54683911 55.16828564 -30.59489918 52.65777345 -30.65844727 50.14770508 C-30.74953636 46.48202323 -30.78843465 42.81898441 -30.81640625 39.15234375 C-30.85455948 38.03560776 -30.89271271 36.91887177 -30.93202209 35.76829529 C-30.91296436 28.14816302 -30.91296436 28.14816302 -28.24703979 24.79544067 C-26.24029774 23.04846202 -24.1647775 21.54152479 -22 20 C-20.65807132 18.34024611 -19.32090525 16.67653359 -18 15 C-17.34 15 -16.68 15 -16 15 C-15.67 14.01 -15.34 13.02 -15 12 C-13.34211215 10.65576661 -11.67423683 9.32381517 -10 8 C-8.66172696 6.33729713 -7.32810215 4.67083819 -6 3 C-2.48275862 0 -2.48275862 0 0 0 Z M-15 31 C-17.20155845 35.5865801 -18.48320315 38.80556615 -18 44 C-17.67 44.66 -17.34 45.32 -17 46 C-14.84882271 46.23542183 -14.84882271 46.23542183 -13.35546875 44.359375 C-11.61946653 41.3376305 -11.86452688 39.67088565 -12.3125 36.25 C-12.43238281 35.26515625 -12.55226562 34.2803125 -12.67578125 33.265625 C-12.78277344 32.51796875 -12.88976562 31.7703125 -13 31 C-13.66 31 -14.32 31 -15 31 Z M41.0625 67.75 C40.04285156 68.26046875 39.02320313 68.7709375 37.97265625 69.296875 C35.03384587 70.98060868 32.50941475 72.72627614 30 75 C30 75.66 30 76.32 30 77 C29.01 77.33 28.02 77.66 27 78 C27 78.66 27 79.32 27 80 C26.34 80 25.68 80 25 80 C21.96721441 83.0942091 19.1198608 86.28199523 18.8125 90.6875 C20.39641053 93.77195735 22.37363791 95.75798358 25 98 C27.31816544 98.22942014 27.31816544 98.22942014 29.4375 95.6875 C30.75301901 94.30780933 32.0662593 92.9245543 33.32421875 91.4921875 C35.49032402 89.56339446 37.72091644 88.59729816 40.375 87.4375 C41.31085938 87.02371094 42.24671875 86.60992187 43.2109375 86.18359375 C45.79291514 85.08788055 48.39576009 84.04169596 51 83 C51 77.06 51 71.12 51 65 C46.65939012 65 44.87071363 65.80987603 41.0625 67.75 Z M63 65 C63 71.27 63 77.54 63 84 C64.485 84.391875 65.97 84.78375 67.5 85.1875 C75.69825957 87.66900997 80.74492919 91.35388104 86 98 C86.66 98 87.32 98 88 98 C88 98.66 88 99.32 88 100 C90.8828842 98.7076726 93.01069314 97.47942594 95 95 C95.39556459 90.60383903 93.65166463 86.92539157 91.16796875 83.3984375 C86.39081631 77.85995254 81.31038563 73.65395182 75 70 C74.18789063 69.51402344 73.37578125 69.02804688 72.5390625 68.52734375 C68.06513426 65.77702956 68.06513426 65.77702956 63 65 Z M38.0625 101.5 C35.9172095 104.01409556 35.9172095 104.01409556 34 107 C35.11878383 108.17262904 36.24523051 109.33795138 37.375 110.5 C38.00148438 111.1496875 38.62796875 111.799375 39.2734375 112.46875 C40.86475907 114.22117431 40.86475907 114.22117431 43 114 C43 114.99 43 115.98 43 117 C43.99 117.33 44.98 117.66 46 118 C48.86078518 116.74812709 48.86078518 116.74812709 51 114 C51.61567479 110.89537924 51.47243419 107.8994733 51.3125 104.75 C51.28994141 103.90953125 51.26738281 103.0690625 51.24414062 102.203125 C51.18537714 100.13465036 51.09569885 98.06709512 51 96 C46.28706258 96 41.50414219 98.57094282 38.0625 101.5 Z M64 97 C64 102.94 64 108.88 64 115 C67.465 116.98 67.465 116.98 71 119 C75.455 114.545 75.455 114.545 80 110 C79.34 108.35 78.68 106.7 78 105 C77.34 105 76.68 105 76 105 C75.67 104.01 75.34 103.02 75 102 C74.34 102 73.68 102 73 102 C73 101.34 73 100.68 73 100 C68.7362719 97.64089647 68.7362719 97.64089647 64 97 Z " fill="#5B501B" transform="translate(231,113)"/>
<path d="M0 0 C0.33 -0.33 0.66 -0.66 1 -1 C9.53489335 -2.20776793 18.48918854 -2.53890459 27 -1 C27.495 -0.01 27.495 -0.01 28 1 C28.99 1 29.98 1 31 1 C29.8905928 4.48670834 28.73662334 7.77484237 27 11 C28.98 11 30.96 11 33 11 C32.649375 10.13375 32.29875 9.2675 31.9375 8.375 C30.931041 4.75174758 31.13936481 2.6146678 32 -1 C33.7634375 -0.9690625 33.7634375 -0.9690625 35.5625 -0.9375 C38.31326284 -0.93266562 40.75678425 -1.10811204 43.5 -1.5 C47.4316364 -2.06166234 51.03254084 -2.13680894 55 -2 C55.495 -1.505 55.495 -1.505 56 -1 C58.33512959 -1.32050798 60.66822025 -1.65596692 63 -2 C66.375 -2.125 66.375 -2.125 69 -2 C69.495 -1.505 69.495 -1.505 70 -1 C73.10382387 -1.15140604 76.18325818 -1.40339718 79.27734375 -1.68359375 C83.07976552 -1.9898792 86.29878706 -1.90386127 90 -1 C91.6662553 -0.9629721 93.33401319 -0.95240038 95 -1 C96.125 2.75 96.125 2.75 95 5 C95.99 5.495 95.99 5.495 97 6 C96.67 7.32 96.34 8.64 96 10 C97.98 10.495 97.98 10.495 100 11 C100 13.97 100 16.94 100 20 C94.60539047 22.27141454 89.73842251 22.20413361 84 22 C84 21.34 84 20.68 84 20 C82.02 20.33 80.04 20.66 78 21 C77.505 20.01 77.505 20.01 77 19 C76.34 19.66 75.68 20.32 75 21 C70.70050852 21.88928331 66.3927228 22.2370592 62.0625 21.5 C58.9467042 20.99129864 56.62028307 21.19713711 53.5 21.5625 C49.06141928 22.0503223 46.19757398 21.63807765 42 20 C39.7124024 20.27640014 39.7124024 20.27640014 38 21 C38 20.34 38 19.68 38 19 C36.8553125 19.7734375 36.8553125 19.7734375 35.6875 20.5625 C34.800625 21.036875 33.91375 21.51125 33 22 C31.515 21.505 31.515 21.505 30 21 C27.85744207 21.38932856 27.85744207 21.38932856 26 22 C26 21.34 26 20.68 26 20 C25.34 20 24.68 20 24 20 C24 18.35 24 16.7 24 15 C23.773125 15.969375 23.54625 16.93875 23.3125 17.9375 C21 21 21 21 17.90625 21.62109375 C14.59668756 21.85492153 11.31743742 21.99053513 8 22 C8 21.34 8 20.68 8 20 C7.01 20 6.02 20 5 20 C5 20.66 5 21.32 5 22 C1.37 22 -2.26 22 -6 22 C-6 21.34 -6 20.68 -6 20 C-6.66 20 -7.32 20 -8 20 C-8.33 20.66 -8.66 21.32 -9 22 C-9.66 22 -10.32 22 -11 22 C-11.66 21.01 -12.32 20.02 -13 19 C-14.32 19.33 -15.64 19.66 -17 20 C-17.12375 19.195625 -17.2475 18.39125 -17.375 17.5625 C-17.58125 16.716875 -17.7875 15.87125 -18 15 C-18.66 14.67 -19.32 14.34 -20 14 C-20 15.98 -20 17.96 -20 20 C-23 21 -23 21 -26 21 C-27.56406528 21.15127402 -29.12659252 21.31902522 -30.6875 21.5 C-31.49574219 21.5928125 -32.30398438 21.685625 -33.13671875 21.78125 C-33.75160156 21.8534375 -34.36648438 21.925625 -35 22 C-35 21.34 -35 20.68 -35 20 C-38.37817425 19.15545644 -40.67465243 18.89155081 -44 20 C-45.41687119 15.74938644 -44.19320039 13.28148375 -43 9 C-43.66 9 -44.32 9 -45 9 C-45.30840069 5.60759236 -45.46200898 3.66734631 -43.48828125 0.81640625 C-40.05867448 -1.68715285 -37.00946539 -1.47743109 -32.9375 -1.3125 C-31.85758789 -1.29799805 -31.85758789 -1.29799805 -30.75585938 -1.28320312 C-27.60114154 -1.21583218 -25.00862719 -1.00287573 -22 0 C-19.66045145 -0.28647533 -17.32787927 -0.63049535 -15 -1 C-4.46262877 -2.52882297 -4.46262877 -2.52882297 0 0 Z M-41 7 C-41.66 7.66 -42.32 8.32 -43 9 C-41.68 8.67 -40.36 8.34 -39 8 C-39.66 7.67 -40.32 7.34 -41 7 Z M-39 9 C-38.67 9.99 -38.34 10.98 -38 12 C-37.34 12 -36.68 12 -36 12 C-35.67 11.01 -35.34 10.02 -35 9 C-36.32 9 -37.64 9 -39 9 Z M-22 9 C-21.67 10.65 -21.34 12.3 -21 14 C-18.46326712 12.6446674 -18.46326712 12.6446674 -16 11 C-16 10.34 -16 9.68 -16 9 C-17.98 9 -19.96 9 -22 9 Z M2 9 C2 9.66 2 10.32 2 11 C2.99 11.495 2.99 11.495 4 12 C4.33 12.99 4.66 13.98 5 15 C5.99 14.67 6.98 14.34 8 14 C7.67 12.35 7.34 10.7 7 9 C5.35 9 3.7 9 2 9 Z M12 9 C13 11 13 11 13 11 Z M15 9 C15.66 9.66 16.32 10.32 17 11 C17 10.34 17 9.68 17 9 C16.34 9 15.68 9 15 9 Z M22 9 C23 11 23 11 23 11 Z M36 9 C36 10.65 36 12.3 36 14 C37.65 13.34 39.3 12.68 41 12 C41 11.01 41 10.02 41 9 C39.35 9 37.7 9 36 9 Z M69 9 C69 9.66 69 10.32 69 11 C69.66 11 70.32 11 71 11 C71 10.34 71 9.68 71 9 C70.34 9 69.68 9 69 9 Z M77 9 C76.67 9.66 76.34 10.32 76 11 C77.98 11 79.96 11 82 11 C79.61837991 9.58614089 79.61837991 9.58614089 77 9 Z M83 9 C84 11 84 11 84 11 Z M92 9 C92 9.66 92 10.32 92 11 C92.66 10.67 93.32 10.34 94 10 C93.34 9.67 92.68 9.34 92 9 Z M-30 8 C-30 8.66 -30 9.32 -30 10 C-30.99 9.67 -31.98 9.34 -33 9 C-33.66 9.66 -34.32 10.32 -35 11 C-30.6835078 11.76173392 -27.25566547 12.16063604 -23 11 C-23.33 10.01 -23.66 9.02 -24 8 C-24.61875 8.185625 -25.2375 8.37125 -25.875 8.5625 C-28 9 -28 9 -30 8 Z M10 9 C9.34 9.66 8.68 10.32 8 11 C8.99 11 9.98 11 11 11 C10.67 10.34 10.34 9.68 10 9 Z M88 9 C87.01 9.66 86.02 10.32 85 11 C86.32 11 87.64 11 89 11 C88.67 10.34 88.34 9.68 88 9 Z M-1 11 C-0.34 11.66 0.32 12.32 1 13 C1.33 12.34 1.66 11.68 2 11 C1.01 11 0.02 11 -1 11 Z M45 13 C45.33 13.66 45.66 14.32 46 15 C46.33 14.34 46.66 13.68 47 13 C46.34 13 45.68 13 45 13 Z M-34 15 C-33 17 -33 17 -33 17 Z M30 15 C30 15.66 30 16.32 30 17 C30.99 16.67 31.98 16.34 33 16 C32.01 15.67 31.02 15.34 30 15 Z M36 15 C36.33 15.66 36.66 16.32 37 17 C37.33 16.34 37.66 15.68 38 15 C37.34 15 36.68 15 36 15 Z M60 15 C61 17 61 17 61 17 Z " fill="#7A7250" transform="translate(314,356)"/>
<path d="M0 0 C0.07427838 3.34252724 0.06546953 5.8035914 -1 9 C-1 9.99 -1 10.98 -1 12 C-0.34 12 0.32 12 1 12 C2.15941038 15.47823115 1.70820884 17.45895578 1 21 C2.134375 21.061875 3.26875 21.12375 4.4375 21.1875 C12.55561716 22.22202112 18.76340095 26.95777033 24 33 C24 33.66 24 34.32 24 35 C24.66 35 25.32 35 26 35 C26 35.66 26 36.32 26 37 C26.99 37.495 26.99 37.495 28 38 C27.34 38 26.68 38 26 38 C25.731875 38.598125 25.46375 39.19625 25.1875 39.8125 C23.52629909 42.87260694 22.18795481 44.62664277 18.8125 45.6875 C18.214375 45.790625 17.61625 45.89375 17 46 C16.505 44.02 16.505 44.02 16 42 C15.34 42 14.68 42 14 42 C12.375 40.625 12.375 40.625 11 39 C11 38.34 11 37.68 11 37 C8.03 36.01 5.06 35.02 2 34 C2 36.97 2 39.94 2 43 C1.67 43 1.34 43 1 43 C0.67 41.35 0.34 39.7 0 38 C-3.11332248 38.66868314 -3.11332248 38.66868314 -4.1875 41.0625 C-4.455625 41.701875 -4.72375 42.34125 -5 43 C-6.65 43 -8.3 43 -10 43 C-9.67 41.35 -9.34 39.7 -9 38 C-9.66 37.67 -10.32 37.34 -11 37 C-11.33 36.01 -11.66 35.02 -12 34 C-13.41791408 34.45445964 -14.83428046 34.91374944 -16.25 35.375 C-17.03890625 35.63023437 -17.8278125 35.88546875 -18.640625 36.1484375 C-23.19180766 37.67923682 -23.19180766 37.67923682 -26.25 41.125 C-26.4975 41.74375 -26.745 42.3625 -27 43 C-31 43 -31 43 -33.75 40.5 C-34.4925 39.675 -35.235 38.85 -36 38 C-34.72537969 32.05177187 -31.91545649 29.2421096 -27 26 C-22.18296879 23.4690175 -17.33742953 21.16248465 -12 20 C-11.87882812 19.24074219 -11.75765625 18.48148438 -11.6328125 17.69921875 C-11.46523438 16.70535156 -11.29765625 15.71148437 -11.125 14.6875 C-10.96257812 13.70136719 -10.80015625 12.71523437 -10.6328125 11.69921875 C-10 9 -10 9 -8 6 C-6.66666667 5.33333333 -5.33333333 4.66666667 -4 4 C-3.67 3.01 -3.34 2.02 -3 1 C-1 0 -1 0 0 0 Z " fill="#574B12" transform="translate(293,176)"/>
<path d="M0 0 C0 17.16 0 34.32 0 52 C-0.33 52 -0.66 52 -1 52 C-1 44.74 -1 37.48 -1 30 C-1.99 30.33 -2.98 30.66 -4 31 C-5.71567661 34.50294871 -5.71567661 34.50294871 -7 38 C-7.66 37.67 -8.32 37.34 -9 37 C-9 36.34 -9 35.68 -9 35 C-9.66 35 -10.32 35 -11 35 C-12.37310707 33.70766393 -13.71034824 32.37562854 -15 31 C-16.26305335 36.07476794 -17.27036084 40.72796354 -17 46 C-16.34 46 -15.68 46 -15 46 C-14.34 44.68 -13.68 43.36 -13 42 C-12.67 42.66 -12.34 43.32 -12 44 C-12.9375 46.125 -12.9375 46.125 -14 48 C-14.99 48 -15.98 48 -17 48 C-17.33 50.97 -17.66 53.94 -18 57 C-16.68 55.68 -15.36 54.36 -14 53 C-13.01 53.66 -12.02 54.32 -11 55 C-11.61875 55.04125 -12.2375 55.0825 -12.875 55.125 C-15.22298888 55.82987213 -15.22298888 55.82987213 -16.25 58.3125 C-17.31553882 63.5513992 -17.1551506 68.67316276 -17 74 C-17.33 74 -17.66 74 -18 74 C-20.63027849 60.63122915 -19.81267758 47.5312423 -19 34 C-21.475 34.495 -21.475 34.495 -24 35 C-23.67 35.99 -23.34 36.98 -23 38 C-25.475 38.495 -25.475 38.495 -28 39 C-28.33 40.32 -28.66 41.64 -29 43 C-28.34 43.33 -27.68 43.66 -27 44 C-27.66 44 -28.32 44 -29 44 C-29 49.61 -29 55.22 -29 61 C-29.33 61 -29.66 61 -30 61 C-30.19880968 56.28629896 -30.34339537 51.57507032 -30.43945312 46.8581543 C-30.47951506 45.25648466 -30.53398583 43.65510453 -30.60351562 42.05444336 C-31.16802897 28.7178155 -31.16802897 28.7178155 -28.26708984 24.45141602 C-26.26133854 22.71830658 -24.25336388 21.38237685 -22 20 C-20.65807132 18.34024611 -19.32090525 16.67653359 -18 15 C-17.34 15 -16.68 15 -16 15 C-15.67 14.01 -15.34 13.02 -15 12 C-13.34211215 10.65576661 -11.67423683 9.32381517 -10 8 C-8.66172696 6.33729713 -7.32810215 4.67083819 -6 3 C-2.48275862 0 -2.48275862 0 0 0 Z " fill="#584D14" transform="translate(231,113)"/>
<path d="M0 0 C0.99 0.99 1.98 1.98 3 3 C2.67 3.66 2.34 4.32 2 5 C2.66 5 3.32 5 4 5 C4.125 11.625 4.125 11.625 3 15 C3.495 15.99 3.495 15.99 4 17 C3.69728039 18.34061543 3.36162029 19.67405895 3 21 C3 21.99 3 22.98 3 24 C2.68330179 26.33564933 2.35179197 28.6693782 2 31 C0.515 30.505 0.515 30.505 -1 30 C-1.495 25.545 -1.495 25.545 -2 21 C-4.165625 21.0309375 -4.165625 21.0309375 -6.375 21.0625 C-10.75 21.125 -10.75 21.125 -13 20 C-13 19.01 -13 18.02 -13 17 C-16.04134491 18.66924071 -16.04134491 18.66924071 -17 21 C-17.64960693 20.96447021 -18.29921387 20.92894043 -18.96850586 20.89233398 C-21.95782199 20.73315536 -24.94759866 20.58526206 -27.9375 20.4375 C-28.95908203 20.38142578 -29.98066406 20.32535156 -31.03320312 20.26757812 C-36.50048407 20.00556786 -41.68688013 20.00290645 -47.10742188 20.80859375 C-49.84663163 21.08562425 -52.33501043 20.61499759 -55 20 C-55 18.68 -55 17.36 -55 16 C-55.66 16.33 -56.32 16.66 -57 17 C-57.33 17.99 -57.66 18.98 -58 20 C-59.9375 20.75 -59.9375 20.75 -62 21 C-62.66 20.67 -63.32 20.34 -64 20 C-63.690625 19.319375 -63.38125 18.63875 -63.0625 17.9375 C-61.85434136 14.92312155 -61.85434136 14.92312155 -61.5 11.25 C-61.335 10.1775 -61.17 9.105 -61 8 C-58.3333581 6.66667905 -56.83319697 7.32897967 -54 8 C-53.67 9.32 -53.34 10.64 -53 12 C-51.68 12.33 -50.36 12.66 -49 13 C-49 11.68 -49 10.36 -49 9 C-49 8.67 -49 8.34 -49 8 C-48.08734375 8.01740234 -48.08734375 8.01740234 -47.15625 8.03515625 C-38.73661601 8.12182895 -30.39331236 7.5897434 -22 7 C-21.855625 7.61875 -21.71125 8.2375 -21.5625 8.875 C-21.06847775 11.03258322 -21.06847775 11.03258322 -20 13 C-19.34 12.67 -18.68 12.34 -18 12 C-18.495 10.02 -18.495 10.02 -19 8 C-15.8125 7.5 -15.8125 7.5 -12 8 C-9.44648935 10.76841006 -7 14.13887863 -7 18 C-5.35 18 -3.7 18 -2 18 C-2.02320313 16.86820312 -2.04640625 15.73640625 -2.0703125 14.5703125 C-2.08906901 13.08854825 -2.10726934 11.60677688 -2.125 10.125 C-2.14175781 9.37863281 -2.15851563 8.63226563 -2.17578125 7.86328125 C-2.1933959 5.90805539 -2.10320189 3.95257979 -2 2 C-1.34 1.34 -0.68 0.68 0 0 Z M-37 10 C-36.67 10.99 -36.34 11.98 -36 13 C-36 12.01 -36 11.02 -36 10 C-36.33 10 -36.66 10 -37 10 Z M-31 10 C-31 10.66 -31 11.32 -31 12 C-29.68 12.33 -28.36 12.66 -27 13 C-27.33 12.01 -27.66 11.02 -28 10 C-28.99 10 -29.98 10 -31 10 Z M-50 16 C-49.34 16.66 -48.68 17.32 -48 18 C-48 17.34 -48 16.68 -48 16 C-48.66 16 -49.32 16 -50 16 Z " fill="#335F74" transform="translate(260,352)"/>
<path d="M0 0 C1.07991211 0.01450195 1.07991211 0.01450195 2.18164062 0.02929688 C5.33635846 0.09666782 7.92887281 0.30962427 10.9375 1.3125 C12.52083792 1.04299567 14.1041741 0.77348113 15.6875 0.50390625 C20.4357608 0.09997434 25.21344064 0.80829005 29.9375 1.3125 C27.7989515 3.4510485 26.80474686 3.73905063 23.9375 4.3125 C24.5975 5.3025 25.2575 6.2925 25.9375 7.3125 C25.9375 6.6525 25.9375 5.9925 25.9375 5.3125 C27.2575 4.9825 28.5775 4.6525 29.9375 4.3125 C29.9375 5.6325 29.9375 6.9525 29.9375 8.3125 C28.9475 8.3125 27.9575 8.3125 26.9375 8.3125 C26.9375 8.9725 26.9375 9.6325 26.9375 10.3125 C22.90130902 11.01107152 19.87293094 11.43690884 15.9375 10.3125 C14.9475 10.6425 13.9575 10.9725 12.9375 11.3125 C12.2775 10.9825 11.6175 10.6525 10.9375 10.3125 C11.2675 11.01375 11.5975 11.715 11.9375 12.4375 C13.02794562 15.57253116 13.09072643 18.01813182 12.9375 21.3125 C9.9375 22.3125 9.9375 22.3125 6.9375 22.3125 C5.37343472 22.46377402 3.81090748 22.63152522 2.25 22.8125 C1.44175781 22.9053125 0.63351562 22.998125 -0.19921875 23.09375 C-0.81410156 23.1659375 -1.42898438 23.238125 -2.0625 23.3125 C-2.0625 22.6525 -2.0625 21.9925 -2.0625 21.3125 C-5.44067425 20.46795644 -7.73715243 20.20405081 -11.0625 21.3125 C-12.47937119 17.06188644 -11.25570039 14.59398375 -10.0625 10.3125 C-10.7225 10.3125 -11.3825 10.3125 -12.0625 10.3125 C-12.37090069 6.92009236 -12.52450898 4.97984631 -10.55078125 2.12890625 C-7.12117448 -0.37465285 -4.07196539 -0.16493109 0 0 Z M-8.0625 8.3125 C-8.7225 8.9725 -9.3825 9.6325 -10.0625 10.3125 C-8.7425 9.9825 -7.4225 9.6525 -6.0625 9.3125 C-6.7225 8.9825 -7.3825 8.6525 -8.0625 8.3125 Z M-6.0625 10.3125 C-5.7325 11.3025 -5.4025 12.2925 -5.0625 13.3125 C-4.4025 13.3125 -3.7425 13.3125 -3.0625 13.3125 C-2.7325 12.3225 -2.4025 11.3325 -2.0625 10.3125 C-3.3825 10.3125 -4.7025 10.3125 -6.0625 10.3125 Z M2.9375 9.3125 C2.9375 9.9725 2.9375 10.6325 2.9375 11.3125 C1.9475 10.9825 0.9575 10.6525 -0.0625 10.3125 C-0.7225 10.9725 -1.3825 11.6325 -2.0625 12.3125 C2.2539922 13.07423392 5.68183453 13.47313604 9.9375 12.3125 C9.6075 11.3225 9.2775 10.3325 8.9375 9.3125 C8.31875 9.498125 7.7 9.68375 7.0625 9.875 C4.9375 10.3125 4.9375 10.3125 2.9375 9.3125 Z M-1.0625 16.3125 C-0.0625 18.3125 -0.0625 18.3125 -0.0625 18.3125 Z " fill="#635935" transform="translate(281.0625,354.6875)"/>
<path d="M0 0 C-0.01571045 0.97102661 -0.01571045 0.97102661 -0.03173828 1.96166992 C-0.20459611 14.36914211 -0.06621884 26.56813916 1.28417969 38.90966797 C1.97583916 45.29316054 2.23939559 51.57621832 2 58 C0.68 58.66 -0.64 59.32 -2 60 C-3.14466615 56.56600155 -3 54.69214898 -3 51 C-4.44060398 49.28499526 -6.02115406 47.98262345 -7.75 46.5625 C-8.1625 46.046875 -8.575 45.53125 -9 45 C-8.6875 42.8125 -8.6875 42.8125 -8 41 C-8.66 40.67 -9.32 40.34 -10 40 C-11.20828836 32.85341638 -11.04098793 25.84679138 -10.75 18.625 C-10.72292969 17.54605469 -10.69585937 16.46710938 -10.66796875 15.35546875 C-10.62800781 14.32292969 -10.58804688 13.29039062 -10.546875 12.2265625 C-10.51432617 11.29408691 -10.48177734 10.36161133 -10.44824219 9.40087891 C-9.92606505 6.60398893 -9.21734705 5.72256151 -7 4 C-6.34 3.67 -5.68 3.34 -5 3 C-5 2.34 -5 1.68 -5 1 C-3 0 -3 0 0 0 Z " fill="#594D15" transform="translate(212,147)"/>
<path d="M0 0 C2 2.3125 2 2.3125 4 5 C5.64783606 6.68528688 7.31002677 8.35697047 9 10 C7.41586975 13.80903229 5.0025984 16.32970727 2.125 19.25 C1.26132812 20.14203125 0.39765625 21.0340625 -0.4921875 21.953125 C-3 24 -3 24 -7 24 C-8.38442 22.03501678 -9.71203834 20.02951535 -11 18 C-11.886875 17.319375 -12.77375 16.63875 -13.6875 15.9375 C-16 14 -16 14 -16.8125 11.25 C-16.874375 10.5075 -16.93625 9.765 -17 9 C-16.21625 8.443125 -15.4325 7.88625 -14.625 7.3125 C-11.85626831 5.23538175 -11.85626831 5.23538175 -11 2.375 C-10 0 -10 0 -7.6875 -1.4375 C-4.28241783 -2.15019162 -2.98592327 -1.76092911 0 0 Z " fill="#584C15" transform="translate(293,276)"/>
<path d="M0 0 C9.29364805 0 13.96130852 1.86588839 20.5625 8.1875 C23 11 23 11 23 13 C23.66 13 24.32 13 25 13 C25 13.66 25 14.32 25 15 C25.66 15.33 26.32 15.66 27 16 C26.34 16 25.68 16 25 16 C24.731875 16.598125 24.46375 17.19625 24.1875 17.8125 C22.52629909 20.87260694 21.18795481 22.62664277 17.8125 23.6875 C17.214375 23.790625 16.61625 23.89375 16 24 C15.67 22.68 15.34 21.36 15 20 C14.34 20 13.68 20 13 20 C11.375 18.625 11.375 18.625 10 17 C10 16.34 10 15.68 10 15 C7.03 14.01 4.06 13.02 1 12 C1 14.97 1 17.94 1 21 C0.67 21 0.34 21 0 21 C0 14.07 0 7.14 0 0 Z " fill="#1A5679" transform="translate(294,198)"/>
<path d="M0 0 C0.02696365 1.79158489 0.04637917 3.58328473 0.0625 5.375 C0.07410156 6.37273437 0.08570313 7.37046875 0.09765625 8.3984375 C0 11 0 11 -1 13 C-2.92578125 13.78125 -2.92578125 13.78125 -5.3125 14.5 C-11.16668383 16.06180639 -11.16668383 16.06180639 -15.25 20.125 C-15.4975 20.74375 -15.745 21.3625 -16 22 C-20 22 -20 22 -22.75 19.5 C-23.4925 18.675 -24.235 17.85 -25 17 C-23.72357079 11.04333034 -20.91216501 8.25441838 -16 5 C-10.72234269 2.123337 -6.12282266 -0.3757689 0 0 Z " fill="#0E4E75" transform="translate(282,197)"/>
<path d="M0 0 C0.99 0.99 1.98 1.98 3 3 C2.67 3.66 2.34 4.32 2 5 C2.66 5 3.32 5 4 5 C4.125 11.625 4.125 11.625 3 15 C3.33 15.66 3.66 16.32 4 17 C3.69728039 18.34061543 3.36162029 19.67405895 3 21 C3 21.99 3 22.98 3 24 C2.68330179 26.33564933 2.35179197 28.6693782 2 31 C1.01 30.67 0.02 30.34 -1 30 C-1.33 27.03 -1.66 24.06 -2 21 C-4.165625 21.0309375 -4.165625 21.0309375 -6.375 21.0625 C-10.75 21.125 -10.75 21.125 -13 20 C-13 19.01 -13 18.02 -13 17 C-16.04134491 18.66924071 -16.04134491 18.66924071 -17 21 C-19.31 20.67 -21.62 20.34 -24 20 C-23.67 15.71 -23.34 11.42 -23 7 C-22.34 7.33 -21.68 7.66 -21 8 C-21 9.65 -21 11.3 -21 13 C-20.01 12.67 -19.02 12.34 -18 12 C-18.33 10.68 -18.66 9.36 -19 8 C-15.8125 7.5 -15.8125 7.5 -12 8 C-9.44648935 10.76841006 -7 14.13887863 -7 18 C-5.35 18 -3.7 18 -2 18 C-2.02320313 16.86820312 -2.04640625 15.73640625 -2.0703125 14.5703125 C-2.08906901 13.08854825 -2.10726934 11.60677688 -2.125 10.125 C-2.14175781 9.37863281 -2.15851563 8.63226563 -2.17578125 7.86328125 C-2.1933959 5.90805539 -2.10320189 3.95257979 -2 2 C-1.34 1.34 -0.68 0.68 0 0 Z " fill="#527389" transform="translate(260,352)"/>
<path d="M0 0 C0.12375 0.639375 0.2475 1.27875 0.375 1.9375 C0.58125 2.618125 0.7875 3.29875 1 4 C1.66 4.33 2.32 4.66 3 5 C2.01 5.33 1.02 5.66 0 6 C2.49064888 6.68707555 4.37886292 7 7 7 C7 7.66 7 8.32 7 9 C7.66 9 8.32 9 9 9 C9 10.65 9 12.3 9 14 C9.66 14.33 10.32 14.66 11 15 C4.73584021 15.82481819 -0.00372046 16.34001153 -6 14 C-8.2875976 14.27640014 -8.2875976 14.27640014 -10 15 C-10 14.34 -10 13.68 -10 13 C-11.32 13.33 -12.64 13.66 -14 14 C-14 13.34 -14 12.68 -14 12 C-15.175625 11.9071875 -15.175625 11.9071875 -16.375 11.8125 C-17.24125 11.544375 -18.1075 11.27625 -19 11 C-20.3125 8.4375 -20.3125 8.4375 -21 6 C-19.02 5.67 -17.04 5.34 -15 5 C-15.33 4.01 -15.66 3.02 -16 2 C-14.02 2 -12.04 2 -10 2 C-10.99 2.495 -10.99 2.495 -12 3 C-11.67 4.32 -11.34 5.64 -11 7 C-10.401875 6.67 -9.80375 6.34 -9.1875 6 C-7 5 -7 5 -4 5 C-3.67 4.34 -3.34 3.68 -3 3 C-2.34 3 -1.68 3 -1 3 C-0.67 2.01 -0.34 1.02 0 0 Z M-3 7 C-2.67 7.66 -2.34 8.32 -2 9 C-1.67 8.34 -1.34 7.68 -1 7 C-1.66 7 -2.32 7 -3 7 Z M-18 9 C-18 9.66 -18 10.32 -18 11 C-17.01 10.67 -16.02 10.34 -15 10 C-15.99 9.67 -16.98 9.34 -18 9 Z M-12 9 C-11.67 9.66 -11.34 10.32 -11 11 C-10.67 10.34 -10.34 9.68 -10 9 C-10.66 9 -11.32 9 -12 9 Z " fill="#8C8765" transform="translate(362,362)"/>
<path d="M0 0 C0.33 0.99 0.66 1.98 1 3 C1.99 2.835 2.98 2.67 4 2.5 C8.02732942 1.91525483 11.93474623 1.92867976 16 2 C16 3.65 16 5.3 16 7 C16.66 6.67 17.32 6.34 18 6 C17.67 4.68 17.34 3.36 17 2 C18.175625 2.020625 19.35125 2.04125 20.5625 2.0625 C26.15982558 2.0625 31.53423955 1.15940373 37 0 C36.01 0.33 35.02 0.66 34 1 C33.67 3.97 33.34 6.94 33 10 C32.505 9.01 32.505 9.01 32 8 C30.35 8 28.7 8 27 8 C27 6.68 27 5.36 27 4 C26.01 4.99 25.02 5.98 24 7 C24.66 7.33 25.32 7.66 26 8 C25.2890625 9.9453125 25.2890625 9.9453125 24 12 C17.911901 13.96901343 11.94260478 12.87082002 6 11 C6 9.35 6 7.7 6 6 C3.36 5.34 0.72 4.68 -2 4 C-2.33 4.66 -2.66 5.32 -3 6 C-3 3 -3 3 -1.5 1.3125 C-0.7575 0.6628125 -0.7575 0.6628125 0 0 Z M9 6 C10 8 10 8 10 8 Z " fill="#6F6743" transform="translate(365,365)"/>
<path d="M0 0 C0.10234659 9.06335876 0.06996173 17.98175113 -1 27 C-1.66 27 -2.32 27 -3 27 C-3 26.34 -3 25.68 -3 25 C-3.66 25 -4.32 25 -5 25 C-5.33 25.66 -5.66 26.32 -6 27 C-7.32 27 -8.64 27 -10 27 C-10.08706892 23.72933434 -10.14041241 20.45896635 -10.1875 17.1875 C-10.22520508 15.7943457 -10.22520508 15.7943457 -10.26367188 14.37304688 C-10.27333984 13.48037109 -10.28300781 12.58769531 -10.29296875 11.66796875 C-10.3086792 10.84578857 -10.32438965 10.0236084 -10.34057617 9.17651367 C-9.91965983 6.48657162 -9.10611911 5.66575748 -7 4 C-6.34 3.67 -5.68 3.34 -5 3 C-5 2.34 -5 1.68 -5 1 C-3 0 -3 0 0 0 Z " fill="#564A12" transform="translate(212,147)"/>
<path d="M0 0 C4.29 0 8.58 0 13 0 C13.33 0.66 13.66 1.32 14 2 C14.99 2 15.98 2 17 2 C15.8905928 5.48670834 14.73662334 8.77484237 13 12 C13.66 12.66 14.32 13.32 15 14 C15.625 16.125 15.625 16.125 16 18 C17.32 18.33 18.64 18.66 20 19 C19.67 20.32 19.34 21.64 19 23 C18.34 23 17.68 23 17 23 C17 22.34 17 21.68 17 21 C16.34 21 15.68 21 15 21 C14.34 19.68 13.68 18.36 13 17 C12.34 17.66 11.68 18.32 11 19 C10.67 16.03 10.34 13.06 10 10 C7.78645833 10.32552083 5.57291667 10.65104167 3.359375 10.9765625 C0.67847541 11.00319395 -0.72694089 10.36592084 -3 9 C-2.34 9 -1.68 9 -1 9 C-1.020625 7.88625 -1.04125 6.7725 -1.0625 5.625 C-1 2 -1 2 0 0 Z " fill="#847D5E" transform="translate(328,355)"/>
<path d="M0 0 C0.66 0.66 1.32 1.32 2 2 C4.10820797 1.6814823 4.10820797 1.6814823 6 1 C5.34 2.65 4.68 4.3 4 6 C5.32 6.66 6.64 7.32 8 8 C6.00491933 8.68124706 4.00361307 9.34427209 2 10 C0.205625 10.61875 0.205625 10.61875 -1.625 11.25 C-5.35815998 12.07959111 -5.90079323 11.89951382 -9 10 C-10.99110401 9.61709538 -12.99100513 9.27395385 -15 9 C-15.84454356 5.62182575 -16.10844919 3.32534757 -15 0 C-13.1746875 0.0309375 -13.1746875 0.0309375 -11.3125 0.0625 C-7.53766404 0.07586225 -3.32168555 -1.66084278 0 0 Z " fill="#6F6643" transform="translate(361,355)"/>
<path d="M0 0 C0.66 2.31 1.32 4.62 2 7 C2.66 6.67 3.32 6.34 4 6 C4.66 7.98 5.32 9.96 6 12 C4.68 12.33 3.36 12.66 2 13 C2 12.34 2 11.68 2 11 C1.34 11 0.68 11 0 11 C0 9.35 0 7.7 0 6 C-0.226875 6.969375 -0.45375 7.93875 -0.6875 8.9375 C-3 12 -3 12 -6.09375 12.62109375 C-9.40331244 12.85492153 -12.68256258 12.99053513 -16 13 C-16 12.34 -16 11.68 -16 11 C-16.99 11 -17.98 11 -19 11 C-19.33 10.01 -19.66 9.02 -20 8 C-19.67 7.34 -19.34 6.68 -19 6 C-15.47839054 6 -12.43804269 6.31239146 -9 7 C-8.67 7.33 -8.34 7.66 -8 8 C-8.33 5.69 -8.66 3.38 -9 1 C-5.846632 0.29925156 -3.27275026 0 0 0 Z " fill="#887E5A" transform="translate(338,365)"/>
<path d="M0 0 C2.00720923 0.28674418 4.0085944 0.61866701 6 1 C6.33 2.32 6.66 3.64 7 5 C8.32 5.33 9.64 5.66 11 6 C11 7.32 11 8.64 11 10 C11.99 9.67 12.98 9.34 14 9 C14.33 7.35 14.66 5.7 15 4 C15.99 4 16.98 4 18 4 C17.67 4.99 17.34 5.98 17 7 C17.66 7.33 18.32 7.66 19 8 C18.67 8.99 18.34 9.98 18 11 C18.66 11.66 19.32 12.32 20 13 C14.76528314 13.75612577 10.22745859 14.2063366 5 13 C5 11.68 5 10.36 5 9 C4.01 9.495 4.01 9.495 3 10 C2.67 10.99 2.34 11.98 2 13 C0.0625 13.75 0.0625 13.75 -2 14 C-2.66 13.67 -3.32 13.34 -4 13 C-3.690625 12.319375 -3.38125 11.63875 -3.0625 10.9375 C-1.86806434 7.63523672 -1.46726078 4.47108011 -1 1 C-0.67 0.67 -0.34 0.34 0 0 Z " fill="#2F6580" transform="translate(200,359)"/>
<path d="M0 0 C1.44096586 0.42594588 2.87768712 0.86626633 4.3125 1.3125 C5.11300781 1.55613281 5.91351563 1.79976562 6.73828125 2.05078125 C9.12757893 3.05354349 10.39589507 3.98059282 12 6 C12 6.66 12 7.32 12 8 C12.66 8 13.32 8 14 8 C14 8.66 14 9.32 14 10 C14.66 10.33 15.32 10.66 16 11 C15.34 11 14.68 11 14 11 C13.731875 11.598125 13.46375 12.19625 13.1875 12.8125 C11.52629909 15.87260694 10.18795481 17.62664277 6.8125 18.6875 C6.214375 18.790625 5.61625 18.89375 5 19 C4.67 17.68 4.34 16.36 4 15 C3.34 15 2.68 15 2 15 C1.06934867 12.39417629 0.85082593 11.35801776 1.9375 8.75 C2.288125 8.1725 2.63875 7.595 3 7 C2.505 6.5875 2.01 6.175 1.5 5.75 C0 4 0 4 0 0 Z " fill="#175478" transform="translate(305,203)"/>
<path d="M0 0 C1.32 0.66 2.64 1.32 4 2 C4 2.66 4 3.32 4 4 C4.99 4.33 5.98 4.66 7 5 C7 5.66 7 6.32 7 7 C7.99 7.33 8.98 7.66 10 8 C11.8066225 11.76379687 10.59379272 16.04138185 10 20 C9.34 20 8.68 20 8 20 C7.67 18.68 7.34 17.36 7 16 C6.34 17.32 5.68 18.64 5 20 C3.68 19.67 2.36 19.34 1 19 C-0.58869469 12.99984057 -1.59754554 7.22559073 -1 1 C-0.67 0.67 -0.34 0.34 0 0 Z " fill="#5D531F" transform="translate(349,140)"/>
<path d="M0 0 C5.42039575 -0.40652968 9.07015675 0.96006486 14 3 C13.67 3.66 13.34 4.32 13 5 C13.66 5.33 14.32 5.66 15 6 C15 7.32 15 8.64 15 10 C14.32453125 9.98839844 13.6490625 9.97679687 12.953125 9.96484375 C12.06109375 9.95582031 11.1690625 9.94679688 10.25 9.9375 C9.36828125 9.92589844 8.4865625 9.91429687 7.578125 9.90234375 C5.2181162 9.99173802 3.25501476 10.33087179 1 11 C0.67 10.01 0.34 9.02 0 8 C-0.99 7.67 -1.98 7.34 -3 7 C-3.33 7.99 -3.66 8.98 -4 10 C-5.0625 8.1875 -5.0625 8.1875 -6 6 C-5.67 5.01 -5.34 4.02 -5 3 C-3.35 2.67 -1.7 2.34 0 2 C0 1.34 0 0.68 0 0 Z " fill="#665C38" transform="translate(393,354)"/>
<path d="M0 0 C0.99 0 1.98 0 3 0 C5.09440189 3.40340307 5.25797575 6.04437178 5 10 C4.67 10.66 4.34 11.32 4 12 C4.99 12.33 5.98 12.66 7 13 C6.34 14.32 5.68 15.64 5 17 C4.34 17 3.68 17 3 17 C2.34 18.32 1.68 19.64 1 21 C-0.65 21 -2.3 21 -4 21 C-3.67 19.35 -3.34 17.7 -3 16 C-3.66 15.67 -4.32 15.34 -5 15 C-5 14.01 -5 13.02 -5 12 C-4.01 11.34 -3.02 10.68 -2 10 C-2.33 9.67 -2.66 9.34 -3 9 C-3.04063832 7.33382885 -3.042721 5.66611905 -3 4 C-2.34 4 -1.68 4 -1 4 C-0.67 2.68 -0.34 1.36 0 0 Z " fill="#584A12" transform="translate(287,198)"/>
<path d="M0 0 C1.98 0 3.96 0 6 0 C6.33 1.98 6.66 3.96 7 6 C6.360625 6.226875 5.72125 6.45375 5.0625 6.6875 C4.381875 7.120625 3.70125 7.55375 3 8 C2.64984951 9.66321482 2.31802943 11.33034549 2 13 C0.1875 15.3125 0.1875 15.3125 -2 17 C-3.32 17 -4.64 17 -6 17 C-8.125 14.1875 -8.125 14.1875 -10 11 C-10.66 10.01 -11.32 9.02 -12 8 C-11.34 7.01 -10.68 6.02 -10 5 C-7 6 -7 6 -6 7 C-4.65938457 6.69728039 -3.32594105 6.36162029 -2 6 C-1.34 6 -0.68 6 0 6 C1.01111093 2.95086772 1.01111093 2.95086772 0 0 Z " fill="#564A0F" transform="translate(292,283)"/>
<path d="M0 0 C1.65 0.33 3.3 0.66 5 1 C5 3.97 5 6.94 5 10 C-0.19548425 12.20808081 -3.58264203 11.93402724 -9 11 C-9 8.03 -9 5.06 -9 2 C-2.25 0.875 -2.25 0.875 0 2 C0 1.34 0 0.68 0 0 Z " fill="#7B7453" transform="translate(409,366)"/>
<path d="M0 0 C0.33 0 0.66 0 1 0 C1.33 4.95 1.66 9.9 2 15 C2.99 15 3.98 15 5 15 C5.66 14.01 6.32 13.02 7 12 C8.32 12 9.64 12 11 12 C12.44105293 20.94147298 12.44105293 20.94147298 10.75 25 C9 27 9 27 6 29 C6 28.01 6 27.02 6 26 C6.66 26 7.32 26 8 26 C8.33 24.68 8.66 23.36 9 22 C7.35 22.33 5.7 22.66 4 23 C3.01 21.35 2.02 19.7 1 18 C1 19.32 1 20.64 1 22 C0.01 22.33 -0.98 22.66 -2 23 C-2.33 21.35 -2.66 19.7 -3 18 C-2.34 17.67 -1.68 17.34 -1 17 C-0.67 11.39 -0.34 5.78 0 0 Z " fill="#605623" transform="translate(365,184)"/>
<path d="M0 0 C0.66 0.33 1.32 0.66 2 1 C2.625 4.0625 2.625 4.0625 3 7 C1.68 6.34 0.36 5.68 -1 5 C-1 5.99 -1 6.98 -1 8 C-0.34 8.33 0.32 8.66 1 9 C1 9.66 1 10.32 1 11 C-0.258125 11.04125 -1.51625 11.0825 -2.8125 11.125 C-3.52019531 11.14820313 -4.22789062 11.17140625 -4.95703125 11.1953125 C-7 11 -7 11 -10 9 C-12.15274948 9.30840599 -12.15274948 9.30840599 -14 10 C-14.30719041 6.62090549 -14.34529892 4.59642541 -12.625 1.625 C-8.62240148 -0.85279908 -4.59539817 -0.48836113 0 0 Z " fill="#786F4A" transform="translate(283,355)"/>
<path d="M0 0 C4 0 4 0 5.75 1.5 C6.36875 2.2425 6.36875 2.2425 7 3 C7.33 2.34 7.66 1.68 8 1 C10.97 1.495 10.97 1.495 14 2 C13.690625 2.598125 13.38125 3.19625 13.0625 3.8125 C11.89790296 6.08956772 11.89790296 6.08956772 11 9 C12.32 9.66 13.64 10.32 15 11 C12.69 11.66 10.38 12.32 8 13 C8 12.34 8 11.68 8 11 C4.62182575 10.15545644 2.32534757 9.89155081 -1 11 C-2.41687119 6.74938644 -1.19320039 4.28148375 0 0 Z M9 6 C10 8 10 8 10 8 Z " fill="#7C7556" transform="translate(271,365)"/>
<path d="M0 0 C1.093125 -0.165 2.18625 -0.33 3.3125 -0.5 C6.66919311 -0.95514483 8.78134286 -0.87781558 12 0 C12 0.33 12 0.66 12 1 C8.37 1.33 4.74 1.66 1 2 C1.99 2.99 2.98 3.98 4 5 C3.67 5.66 3.34 6.32 3 7 C4.65 7.33 6.3 7.66 8 8 C8.33 9.65 8.66 11.3 9 13 C4.71 13 0.42 13 -4 13 C-4.33 11.68 -4.66 10.36 -5 9 C-4.01 8.34 -3.02 7.68 -2 7 C-3.32 6.67 -4.64 6.34 -6 6 C-5.34 5.67 -4.68 5.34 -4 5 C-4 4.01 -4 3.02 -4 2 C-5.32 2.33 -6.64 2.66 -8 3 C-8 2.34 -8 1.68 -8 1 C-8.66 0.67 -9.32 0.34 -10 0 C-2.25 -1.125 -2.25 -1.125 0 0 Z " fill="#9D9168" transform="translate(370,355)"/>
<path d="M0 0 C0.33 0 0.66 0 1 0 C3.02631579 24.46052632 3.02631579 24.46052632 0 29 C-0.61875 27.9171875 -0.61875 27.9171875 -1.25 26.8125 C-2.88046953 23.94077495 -2.88046953 23.94077495 -5.25 21.8125 C-7.89445663 17.56248041 -6.85269865 13.77325872 -6 9 C-3.525 10.98 -3.525 10.98 -1 13 C-0.67 8.71 -0.34 4.42 0 0 Z " fill="#4E6E73" transform="translate(366,152)"/>
<path d="M0 0 C2.31 0.33 4.62 0.66 7 1 C6.67 3.64 6.34 6.28 6 9 C7.15811388 7.94729537 7.15811388 7.94729537 8 6 C10 7 10 7 11 9 C11 8.34 11 7.68 11 7 C11.66 7 12.32 7 13 7 C13.33 6.34 13.66 5.68 14 5 C14.66 5.33 15.32 5.66 16 6 C16 6.99 16 7.98 16 9 C15.34 9 14.68 9 14 9 C13.67 10.65 13.34 12.3 13 14 C12.34 14 11.68 14 11 14 C11 13.34 11 12.68 11 12 C10.34 12 9.68 12 9 12 C8.67 12.66 8.34 13.32 8 14 C7.34 14 6.68 14 6 14 C5.34 13.01 4.68 12.02 4 11 C2.68 11.33 1.36 11.66 0 12 C-0.12375 11.195625 -0.2475 10.39125 -0.375 9.5625 C-0.684375 8.2940625 -0.684375 8.2940625 -1 7 C-1.66 6.67 -2.32 6.34 -3 6 C-2.67 5.01 -2.34 4.02 -2 3 C-1.34 3 -0.68 3 0 3 C0 2.01 0 1.02 0 0 Z " fill="#837B4D" transform="translate(297,364)"/>
<path d="M0 0 C0.99 0.99 1.98 1.98 3 3 C2.67 3.66 2.34 4.32 2 5 C2.66 5 3.32 5 4 5 C4.125 11.625 4.125 11.625 3 15 C3.33 15.66 3.66 16.32 4 17 C3.69728039 18.34061543 3.36162029 19.67405895 3 21 C3 21.99 3 22.98 3 24 C2.68330179 26.33564933 2.35179197 28.6693782 2 31 C1.01 30.67 0.02 30.34 -1 30 C-0.98839844 28.73285156 -0.97679687 27.46570313 -0.96484375 26.16015625 C-0.95545581 24.46093899 -0.94635669 22.76172011 -0.9375 21.0625 C-0.92912109 20.23169922 -0.92074219 19.40089844 -0.91210938 18.54492188 C-0.8926246 13.5373336 -1.18670759 8.75883251 -1.97875977 3.81030273 C-1.98576904 3.21290283 -1.99277832 2.61550293 -2 2 C-1.34 1.34 -0.68 0.68 0 0 Z " fill="#252726" transform="translate(260,352)"/>
<path d="M0 0 C0 17.16 0 34.32 0 52 C-0.33 52 -0.66 52 -1 52 C-1 44.74 -1 37.48 -1 30 C-2.32 30.33 -3.64 30.66 -5 31 C-4.67 30.01 -4.34 29.02 -4 28 C-3.01 28.33 -2.02 28.66 -1 29 C-1.33 28.34 -1.66 27.68 -2 27 C-2.08400529 25.40552536 -2.10727467 23.80759455 -2.09765625 22.2109375 C-2.09282227 20.79941406 -2.09282227 20.79941406 -2.08789062 19.359375 C-2.07951172 18.37453125 -2.07113281 17.3896875 -2.0625 16.375 C-2.05798828 15.38242188 -2.05347656 14.38984375 -2.04882812 13.3671875 C-2.03702145 10.9113984 -2.020554 8.45572896 -2 6 C-3.65 6.66 -5.3 7.32 -7 8 C-7.66 7.34 -8.32 6.68 -9 6 C-7.8803014 4.99406757 -6.7540588 3.9954151 -5.625 3 C-4.68527344 2.1646875 -4.68527344 2.1646875 -3.7265625 1.3125 C-2 0 -2 0 0 0 Z " fill="#79724E" transform="translate(231,113)"/>
<path d="M0 0 C0.12375 0.639375 0.2475 1.27875 0.375 1.9375 C0.684375 2.9584375 0.684375 2.9584375 1 4 C1.66 4.33 2.32 4.66 3 5 C2.01 5.33 1.02 5.66 0 6 C2.49064888 6.68707555 4.37886292 7 7 7 C7 7.66 7 8.32 7 9 C7.66 9 8.32 9 9 9 C9 10.65 9 12.3 9 14 C9.66 14.33 10.32 14.66 11 15 C9.20909747 15.19466332 7.41723495 15.38051213 5.625 15.5625 C4.12839844 15.71912109 4.12839844 15.71912109 2.6015625 15.87890625 C0 16 0 16 -2 15 C-2.37366113 13.00714063 -2.70740515 11.00636471 -3 9 C-3.33 8.67 -3.66 8.34 -4 8 C-4 7.34 -4 6.68 -4 6 C-4.99 5.67 -5.98 5.34 -7 5 C-6.01 5 -5.02 5 -4 5 C-3.67 4.34 -3.34 3.68 -3 3 C-2.34 3 -1.68 3 -1 3 C-0.67 2.01 -0.34 1.02 0 0 Z " fill="#999574" transform="translate(362,362)"/>
<path d="M0 0 C1.65 0 3.3 0 5 0 C6.125 3.75 6.125 3.75 5 6 C5.66 6.33 6.32 6.66 7 7 C6.34 8.98 5.68 10.96 5 13 C4.34 12.67 3.68 12.34 3 12 C2.01 12.33 1.02 12.66 0 13 C-1.32 13 -2.64 13 -4 13 C-4 15.97 -4 18.94 -4 22 C-4.66 22.33 -5.32 22.66 -6 23 C-6 22.34 -6 21.68 -6 21 C-7.98 21.33 -9.96 21.66 -12 22 C-12 21.01 -12 20.02 -12 19 C-12.66 18.67 -13.32 18.34 -14 18 C-14 16.68 -14 15.36 -14 14 C-13.34 14 -12.68 14 -12 14 C-12 15.32 -12 16.64 -12 18 C-10.35 18 -8.7 18 -7 18 C-6.34 16.02 -5.68 14.04 -5 12 C-3.68 12 -2.36 12 -1 12 C-1 11.34 -1 10.68 -1 10 C-2.98 10 -4.96 10 -7 10 C-6.34 9.34 -5.68 8.68 -5 8 C-2.8359375 8.0234375 -2.8359375 8.0234375 -0.375 8.375 C0.85089844 8.54128906 0.85089844 8.54128906 2.1015625 8.7109375 C2.72804688 8.80632812 3.35453125 8.90171875 4 9 C4 7.68 4 6.36 4 5 C2.68 4.34 1.36 3.68 0 3 C0 2.01 0 1.02 0 0 Z " fill="#B6B197" transform="translate(404,355)"/>
<path d="M0 0 C1.28132813 0.10183594 2.56265625 0.20367187 3.8828125 0.30859375 C4.87023437 0.39238281 5.85765625 0.47617187 6.875 0.5625 C4.7364515 2.7010485 3.74224686 2.98905063 0.875 3.5625 C1.865 5.0475 1.865 5.0475 2.875 6.5625 C2.875 5.9025 2.875 5.2425 2.875 4.5625 C4.195 4.2325 5.515 3.9025 6.875 3.5625 C6.875 4.8825 6.875 6.2025 6.875 7.5625 C5.885 7.5625 4.895 7.5625 3.875 7.5625 C3.875 8.2225 3.875 8.8825 3.875 9.5625 C-2.58648093 10.90356208 -2.58648093 10.90356208 -5 9.375 C-6.20244714 7.43772405 -6.61067264 5.7667601 -7.125 3.5625 C-7.785 3.2325 -8.445 2.9025 -9.125 2.5625 C-9.125 1.9025 -9.125 1.2425 -9.125 0.5625 C-6.07230154 -0.96384923 -3.36654311 -0.27544444 0 0 Z " fill="#5E522D" transform="translate(304.125,355.4375)"/>
<path d="M0 0 C0.33 0 0.66 0 1 0 C1 1.98 1 3.96 1 6 C1.99 6 2.98 6 4 6 C4 11.28 4 16.56 4 22 C2.68 21.67 1.36 21.34 0 21 C0 20.01 0 19.02 0 18 C-0.66 18 -1.32 18 -2 18 C-1.4740625 17.1028125 -1.4740625 17.1028125 -0.9375 16.1875 C0.33304698 13.89186786 0.33304698 13.89186786 -1 11 C-3.67642489 8.81509993 -3.67642489 8.81509993 -6 9 C-6.33 7.02 -6.66 5.04 -7 3 C-6.01 3.33 -5.02 3.66 -4 4 C-4 4.66 -4 5.32 -4 6 C-3.34 6 -2.68 6 -2 6 C-1.34 4.02 -0.68 2.04 0 0 Z " fill="#4B491C" transform="translate(356,154)"/>
<path d="M0 0 C0.66 0.33 1.32 0.66 2 1 C1.73958333 2.953125 1.47916667 4.90625 1.21875 6.859375 C0.93222643 9.30458395 0.93222643 9.30458395 1 13 C1.66 13 2.32 13 3 13 C3.66 11.68 4.32 10.36 5 9 C5.33 9.66 5.66 10.32 6 11 C5.0625 13.125 5.0625 13.125 4 15 C3.01 15 2.02 15 1 15 C0.67 17.97 0.34 20.94 0 24 C1.32 22.68 2.64 21.36 4 20 C4.99 20.66 5.98 21.32 7 22 C6.38125 22.04125 5.7625 22.0825 5.125 22.125 C2.77701112 22.82987213 2.77701112 22.82987213 1.75 25.3125 C0.68446118 30.5513992 0.8448494 35.67316276 1 41 C0.67 41 0.34 41 0 41 C-1.8177194 31.62597596 -2.10793448 22.72019383 -1.6875 13.1875 C-1.64052979 12.11951172 -1.59355957 11.05152344 -1.54516602 9.95117188 C-1.14496064 2.28992127 -1.14496064 2.28992127 0 0 Z " fill="#5E6552" transform="translate(213,146)"/>
<path d="M0 0 C2.5 2.3125 2.5 2.3125 5 5 C5 5.99 5 6.98 5 8 C4.34 7.67 3.68 7.34 3 7 C2.7525 7.5775 2.505 8.155 2.25 8.75 C0.77179527 11.41076851 -0.58314039 13.13556544 -3 15 C-5.4375 15.125 -5.4375 15.125 -8 14 C-9.90146615 12.11411964 -11.39082371 10.16089388 -13 8 C-12.34 7.67 -11.68 7.34 -11 7 C-11 7.66 -11 8.32 -11 9 C-8.36 8.34 -5.72 7.68 -3 7 C-3 7.66 -3 8.32 -3 9 C-2.34 9 -1.68 9 -1 9 C-1 8.34 -1 7.68 -1 7 C-0.34 7 0.32 7 1 7 C1.33 6.01 1.66 5.02 2 4 C1.34 4 0.68 4 0 4 C0 2.68 0 1.36 0 0 Z " fill="#625829" transform="translate(278,267)"/>
<path d="M0 0 C2.35953094 2.35953094 2.49141413 3.77895617 3 7 C2.34 7 1.68 7 1 7 C1 9.97 1 12.94 1 16 C-0.32 15.67 -1.64 15.34 -3 15 C-3.99 16.485 -3.99 16.485 -5 18 C-5.66 18 -6.32 18 -7 18 C-7.3696 11.4704 -7.3696 11.4704 -5.625 9.25 C-4.820625 8.63125 -4.820625 8.63125 -4 8 C-2.22293791 5.33440687 -1.12451727 2.9719385 0 0 Z " fill="#424929" transform="translate(220,152)"/>
<path d="M0 0 C1.258125 -0.020625 2.51625 -0.04125 3.8125 -0.0625 C4.52019531 -0.07410156 5.22789062 -0.08570313 5.95703125 -0.09765625 C8 0 8 0 11 1 C11 2.98 11 4.96 11 7 C10.34 7 9.68 7 9 7 C9 8.32 9 9.64 9 11 C7.68 10.67 6.36 10.34 5 10 C5.99 9.01 6.98 8.02 8 7 C7.01 6.67 6.02 6.34 5 6 C5.66 5.01 6.32 4.02 7 3 C6.01 3 5.02 3 4 3 C3.67 5.64 3.34 8.28 3 11 C2.67 10.01 2.34 9.02 2 8 C1.34 8 0.68 8 0 8 C0 5.36 0 2.72 0 0 Z " fill="#235D75" transform="translate(211,360)"/>
<path d="M0 0 C0.33 1.32 0.66 2.64 1 4 C0.01 4.495 0.01 4.495 -1 5 C0.32 5 1.64 5 3 5 C2.67 6.32 2.34 7.64 2 9 C0.68 8.34 -0.64 7.68 -2 7 C-2.33 7.66 -2.66 8.32 -3 9 C-3 8.34 -3 7.68 -3 7 C-4.32 7 -5.64 7 -7 7 C-7 7.66 -7 8.32 -7 9 C-7.99 8.67 -8.98 8.34 -10 8 C-10 7.01 -10 6.02 -10 5 C-10.99 4.34 -11.98 3.68 -13 3 C-10.35541621 1.67770811 -8.32238699 1.90322806 -5.375 1.9375 C-3.87066406 1.95103516 -3.87066406 1.95103516 -2.3359375 1.96484375 C-1.56507813 1.97644531 -0.79421875 1.98804688 0 2 C0 1.34 0 0.68 0 0 Z " fill="#5B502B" transform="translate(382,354)"/>
<path d="M0 0 C4.875 1.75 4.875 1.75 6 4 C5.67 4.66 5.34 5.32 5 6 C4.34 6 3.68 6 3 6 C3 6.83144531 3 7.66289062 3 8.51953125 C3 12.6796875 3 16.83984375 3 21 C1.68 20.67 0.36 20.34 -1 20 C-1.02703562 17.41659616 -1.04685611 14.83347692 -1.0625 12.25 C-1.07087891 11.52039063 -1.07925781 10.79078125 -1.08789062 10.0390625 C-1.10391684 6.51329442 -0.95292713 3.38965084 0 0 Z " fill="#53522A" transform="translate(282,189)"/>
<path d="M0 0 C1.98 0.495 1.98 0.495 4 1 C3.67 2.98 3.34 4.96 3 7 C4.32 7.33 5.64 7.66 7 8 C5.68 8 4.36 8 3 8 C3 12.29 3 16.58 3 21 C2.01 20.67 1.02 20.34 0 20 C0.020625 18.783125 0.04125 17.56625 0.0625 16.3125 C0.07112023 13.85573405 -0.03308681 11.8492712 -0.5625 9.4375 C-1.15400923 6.1419486 -0.57765286 3.27336623 0 0 Z " fill="#5C5830" transform="translate(291,190)"/>
<path d="M0 0 C0.99 0 1.98 0 3 0 C3 2.64 3 5.28 3 8 C2.01 8.33 1.02 8.66 0 9 C0.33 10.98 0.66 12.96 1 15 C0.01 15.33 -0.98 15.66 -2 16 C-2 14.35 -2 12.7 -2 11 C-2.99 11 -3.98 11 -5 11 C-7 8 -7 8 -8 5 C-1.25 4.875 -1.25 4.875 1 6 C1.33 5.01 1.66 4.02 2 3 C0.68 3 -0.64 3 -2 3 C-1 1 -1 1 0 0 Z " fill="#897E59" transform="translate(383,356)"/>
<path d="M0 0 C1.32 0.33 2.64 0.66 4 1 C5.25 7.625 5.25 7.625 3 11 C1.68 11 0.36 11 -1 11 C-1 10.34 -1 9.68 -1 9 C-2.32 8.67 -3.64 8.34 -5 8 C-4.67 7.34 -4.34 6.68 -4 6 C-4.66 5.67 -5.32 5.34 -6 5 C-5.67 4.34 -5.34 3.68 -5 3 C-4.34 3.33 -3.68 3.66 -3 4 C-2.67 4 -2.34 4 -2 4 C-1.34 2.68 -0.68 1.36 0 0 Z " fill="#635A31" transform="translate(286,355)"/>
<path d="M0 0 C0.66 0.66 1.32 1.32 2 2 C4.10820797 1.6814823 4.10820797 1.6814823 6 1 C5.8125 2.875 5.8125 2.875 5 5 C2.4375 6.25 2.4375 6.25 0 7 C0 7.66 0 8.32 0 9 C-0.66 9 -1.32 9 -2 9 C-2.33 7.35 -2.66 5.7 -3 4 C-3.33 4.66 -3.66 5.32 -4 6 C-4.99 6.495 -4.99 6.495 -6 7 C-6.33 4.69 -6.66 2.38 -7 0 C-2.25 -1.125 -2.25 -1.125 0 0 Z " fill="#625836" transform="translate(361,355)"/>
<path d="M0 0 C2.31 0.66 4.62 1.32 7 2 C6.67 2.66 6.34 3.32 6 4 C6.66 4.33 7.32 4.66 8 5 C8 6.32 8 7.64 8 9 C5.69 9 3.38 9 1 9 C0.67 7.68 0.34 6.36 0 5 C-0.66 5 -1.32 5 -2 5 C-1.34 3.35 -0.68 1.7 0 0 Z " fill="#867D5A" transform="translate(400,355)"/>
<path d="M0 0 C0.66 1.32 1.32 2.64 2 4 C2.99 3.67 3.98 3.34 5 3 C7.1875 3.9375 7.1875 3.9375 9 5 C8.45276317 8.37462715 7.9451 10.08235 6 13 C4.68 12.34 3.36 11.68 2 11 C2 10.34 2 9.68 2 9 C1.34 8.67 0.68 8.34 0 8 C0 5.36 0 2.72 0 0 Z " fill="#64591B" transform="translate(348,159)"/>
<path d="M0 0 C0.66 0.33 1.32 0.66 2 1 C2 2.65 2 4.3 2 6 C2.99 6 3.98 6 5 6 C5 6.66 5 7.32 5 8 C7.97 8.495 7.97 8.495 11 9 C10.67 10.32 10.34 11.64 10 13 C10 12.01 10 11.02 10 10 C6.95865509 11.66924071 6.95865509 11.66924071 6 14 C3.69 13.67 1.38 13.34 -1 13 C-0.67 8.71 -0.34 4.42 0 0 Z " fill="#82A2AC" transform="translate(237,359)"/>
<path d="M0 0 C1.32 0 2.64 0 4 0 C4.268125 0.804375 4.53625 1.60875 4.8125 2.4375 C5.204375 3.283125 5.59625 4.12875 6 5 C6.99 5.33 7.98 5.66 9 6 C9 5.34 9 4.68 9 4 C9.66 4 10.32 4 11 4 C11.33 3.34 11.66 2.68 12 2 C12 3.98 12 5.96 12 8 C9.1080406 8.96398647 7.0005625 9 4 9 C4 8.34 4 7.68 4 7 C1.69 7 -0.62 7 -3 7 C-2.01 6.34 -1.02 5.68 0 5 C0.25030977 2.41619823 0.25030977 2.41619823 0 0 Z " fill="#777153" transform="translate(282,368)"/>
<path d="M0 0 C1.32 0 2.64 0 4 0 C4.38218767 1.65614657 4.71395102 3.32457024 5 5 C4.67 5.33 4.34 5.66 4 6 C4.66 6.66 5.32 7.32 6 8 C2.375 11 2.375 11 -1 11 C-2.41687119 6.74938644 -1.19320039 4.28148375 0 0 Z " fill="#6F6A41" transform="translate(271,365)"/>
<path d="M0 0 C0.33 0.99 0.66 1.98 1 3 C2.010625 2.814375 3.02125 2.62875 4.0625 2.4375 C7.97914227 2.00231753 11.14244663 2.29146979 15 3 C15 3.99 15 4.98 15 6 C14.01 6 13.02 6 12 6 C11.67 7.32 11.34 8.64 11 10 C10.34 9.34 9.68 8.68 9 8 C9.66 8 10.32 8 11 8 C11 7.01 11 6.02 11 5 C9.96939453 5.01740234 9.96939453 5.01740234 8.91796875 5.03515625 C8.01691406 5.04417969 7.11585938 5.05320312 6.1875 5.0625 C4.84751953 5.07990234 4.84751953 5.07990234 3.48046875 5.09765625 C1 5 1 5 -2 4 C-2.33 4.66 -2.66 5.32 -3 6 C-3 3 -3 3 -1.5 1.3125 C-0.7575 0.6628125 -0.7575 0.6628125 0 0 Z " fill="#625B37" transform="translate(365,365)"/>
<path d="M0 0 C6.39534884 0.69767442 6.39534884 0.69767442 9 2 C9 2.66 9 3.32 9 4 C7.35 4.33 5.7 4.66 4 5 C4.33 6.32 4.66 7.64 5 9 C2 7 2 7 1 6 C0.67 6.66 0.34 7.32 0 8 C-0.66 7.67 -1.32 7.34 -2 7 C-1.125 1.125 -1.125 1.125 0 0 Z " fill="#645832" transform="translate(304,366)"/>
<path d="M0 0 C2 0 4 0 6 0 C6.33 0.66 6.66 1.32 7 2 C9.01669827 3.13350534 9.01669827 3.13350534 11 4 C10.01 4.495 10.01 4.495 9 5 C9 5.66 9 6.32 9 7 C7.02 7 5.04 7 3 7 C3 6.34 3 5.68 3 5 C2.01 5 1.02 5 0 5 C-0.33 4.01 -0.66 3.02 -1 2 C-0.67 1.34 -0.34 0.68 0 0 Z " fill="#897E5E" transform="translate(319,371)"/>
<path d="M0 0 C0 4.07059347 -1.54769228 6.79121769 -4 10 C-6.1875 10.75 -6.1875 10.75 -8 11 C-8.33 11.99 -8.66 12.98 -9 14 C-10.32 13.67 -11.64 13.34 -13 13 C-12.50628906 12.51789063 -12.01257813 12.03578125 -11.50390625 11.5390625 C-10.86324219 10.90742188 -10.22257813 10.27578125 -9.5625 9.625 C-8.92441406 8.99851563 -8.28632813 8.37203125 -7.62890625 7.7265625 C-5.92117824 6.08276939 -5.92117824 6.08276939 -5 4 C-4.34 4 -3.68 4 -3 4 C-2.67 3.01 -2.34 2.02 -2 1 C-1.34 0.67 -0.68 0.34 0 0 Z " fill="#685F38" transform="translate(218,124)"/>
<path d="M0 0 C0.66 0.66 1.32 1.32 2 2 C1.625 4.625 1.625 4.625 1 7 C-0.36125 6.9690625 -0.36125 6.9690625 -1.75 6.9375 C-4.42672588 6.9889755 -6.46988052 7.2215017 -9 8 C-9 6.02 -9 4.04 -9 2 C-6.36 2 -3.72 2 -1 2 C-0.67 1.34 -0.34 0.68 0 0 Z " fill="#665F3D" transform="translate(278,357)"/>
<path d="M0 0 C2.97 0.495 2.97 0.495 6 1 C5.690625 1.763125 5.38125 2.52625 5.0625 3.3125 C4.32106407 5.18789677 3.63771783 7.08684652 3 9 C2.01 9 1.02 9 0 9 C-0.33 9.66 -0.66 10.32 -1 11 C-1.66 10.34 -2.32 9.68 -3 9 C-2.34 9 -1.68 9 -1 9 C-1.020625 7.88625 -1.04125 6.7725 -1.0625 5.625 C-1 2 -1 2 0 0 Z " fill="#5E5530" transform="translate(328,355)"/>
<path d="M0 0 C1.5625 1.25 1.5625 1.25 3 3 C2.6875 5.1875 2.6875 5.1875 2 7 C1.34 7 0.68 7 0 7 C2.31 7.66 4.62 8.32 7 9 C7 7.68 7 6.36 7 5 C8.32 5.66 9.64 6.32 11 7 C10.67 7.99 10.34 8.98 10 10 C8.56260487 10.02712066 7.12506137 10.04645067 5.6875 10.0625 C4.48673828 10.07990234 4.48673828 10.07990234 3.26171875 10.09765625 C1 10 1 10 -2 9 C-2 7.68 -2 6.36 -2 5 C-1.34 5 -0.68 5 0 5 C0 3.35 0 1.7 0 0 Z " fill="#6196A8" transform="translate(222,362)"/>
<path d="M0 0 C0.99 0 1.98 0 3 0 C2.67 0.99 2.34 1.98 2 3 C2.66 3.33 3.32 3.66 4 4 C3.67 4.99 3.34 5.98 3 7 C3.66 7.66 4.32 8.32 5 9 C-0.23471686 9.75612577 -4.77254141 10.2063366 -10 9 C-9.67 8.01 -9.34 7.02 -9 6 C-9 6.66 -9 7.32 -9 8 C-7.68 8 -6.36 8 -5 8 C-4.67 7.34 -4.34 6.68 -4 6 C-3.01 5.67 -2.02 5.34 -1 5 C-0.67 3.35 -0.34 1.7 0 0 Z " fill="#598FA2" transform="translate(215,363)"/>
<path d="M0 0 C1.093125 -0.165 2.18625 -0.33 3.3125 -0.5 C6.66919311 -0.95514483 8.78134286 -0.87781558 12 0 C12 0.33 12 0.66 12 1 C10.84371094 1.09087891 10.84371094 1.09087891 9.6640625 1.18359375 C8.66117187 1.26738281 7.65828125 1.35117187 6.625 1.4375 C5.12839844 1.55931641 5.12839844 1.55931641 3.6015625 1.68359375 C1.02072387 1.84965626 1.02072387 1.84965626 -1 3 C-1.65213292 5.02463255 -1.65213292 5.02463255 -2 7 C-3.32 6.67 -4.64 6.34 -6 6 C-5.34 5.67 -4.68 5.34 -4 5 C-4 4.01 -4 3.02 -4 2 C-5.32 2.33 -6.64 2.66 -8 3 C-8 2.34 -8 1.68 -8 1 C-8.66 0.67 -9.32 0.34 -10 0 C-2.25 -1.125 -2.25 -1.125 0 0 Z " fill="#A09582" transform="translate(370,355)"/>
<path d="M0 0 C0.66 0 1.32 0 2 0 C2.64690922 1.6037331 3.29248764 3.20800306 3.9375 4.8125 C4.29714844 5.70582031 4.65679687 6.59914062 5.02734375 7.51953125 C5.73613486 9.3270909 6.3860247 11.15807409 7 13 C5.0625 12.6875 5.0625 12.6875 3 12 C2.67 11.01 2.34 10.02 2 9 C-0.00016466 7.79117904 -0.00016466 7.79117904 -2 7 C-1.34 4.69 -0.68 2.38 0 0 Z " fill="#777147" transform="translate(288,145)"/>
<path d="M0 0 C2 3 2 3 2 6 C-0.83967231 6 -3.23735711 5.59732819 -6 5 C-6.33 5.66 -6.66 6.32 -7 7 C-7 6.34 -7 5.68 -7 5 C-7.66 4.67 -8.32 4.34 -9 4 C-7.35 3.34 -5.7 2.68 -4 2 C-6.97 1.505 -6.97 1.505 -10 1 C-10 0.67 -10 0.34 -10 0 C-3.23076923 -1.38461538 -3.23076923 -1.38461538 0 0 Z " fill="#8B7B61" transform="translate(313,355)"/>
<path d="M0 0 C1.32 0.33 2.64 0.66 4 1 C4 4.63 4 8.26 4 12 C1.03 11.505 1.03 11.505 -2 11 C-1.34 10.67 -0.68 10.34 0 10 C0.08226668 6.95613276 -0.02391783 4.92824652 -1 2 C-0.67 1.34 -0.34 0.68 0 0 Z " fill="#5F5622" transform="translate(356,175)"/>
<path d="M0 0 C0.33 0.66 0.66 1.32 1 2 C1.66 2.33 2.32 2.66 3 3 C2.125 8.75 2.125 8.75 1 11 C1.66 11.33 2.32 11.66 3 12 C2.34 12 1.68 12 1 12 C1 17.61 1 23.22 1 29 C0.67 29 0.34 29 0 29 C0 19.43 0 9.86 0 0 Z " fill="#8B8567" transform="translate(201,145)"/>
<path d="M0 0 C0.33 1.32 0.66 2.64 1 4 C0.01 4 -0.98 4 -2 4 C-2 4.66 -2 5.32 -2 6 C-5.375 6.625 -5.375 6.625 -9 7 C-9.66 6.34 -10.32 5.68 -11 5 C-10.01 4.67 -9.02 4.34 -8 4 C-8 3.01 -8 2.02 -8 1 C-7.360625 1.185625 -6.72125 1.37125 -6.0625 1.5625 C-5.381875 1.706875 -4.70125 1.85125 -4 2 C-3.67 1.67 -3.34 1.34 -3 1 C-2.01 0.67 -1.02 0.34 0 0 Z " fill="#625730" transform="translate(310,359)"/>
<path d="M0 0 C2.64 0 5.28 0 8 0 C7.01 0.495 7.01 0.495 6 1 C6 1.66 6 2.32 6 3 C7.32 3 8.64 3 10 3 C10.33 4.32 10.66 5.64 11 7 C8.69 7.33 6.38 7.66 4 8 C3.375 6.1875 3.375 6.1875 3 4 C3.66 3.01 4.32 2.02 5 1 C3.35 1 1.7 1 0 1 C0 0.67 0 0.34 0 0 Z " fill="#8A7F64" transform="translate(329,355)"/>
<path d="M0 0 C0 3.59857954 -0.95830515 5.09451118 -3 8 C-3.66 8 -4.32 8 -5 8 C-5 9.32 -5 10.64 -5 12 C-6.98 12.99 -6.98 12.99 -9 14 C-9.66 13.34 -10.32 12.68 -11 12 C-7.72469104 7.36279281 -4.69564393 3.31457218 0 0 Z " fill="#686238" transform="translate(341,224)"/>
<path d="M0 0 C2.97 0.495 2.97 0.495 6 1 C6.33 2.32 6.66 3.64 7 5 C8.32 5.33 9.64 5.66 11 6 C11 6.99 11 7.98 11 9 C10.34 9 9.68 9 9 9 C8.67 8.34 8.34 7.68 8 7 C5.97536745 6.34786708 5.97536745 6.34786708 4 6 C4 5.01 4 4.02 4 3 C3.34 3 2.68 3 2 3 C1.67 3.99 1.34 4.98 1 6 C0.34 5.34 -0.32 4.68 -1 4 C-0.625 1.875 -0.625 1.875 0 0 Z " fill="#6A909B" transform="translate(200,359)"/>
<path d="M0 0 C-0.33 3.3 -0.66 6.6 -1 10 C-1.99 10.33 -2.98 10.66 -4 11 C-4.125 5.25 -4.125 5.25 -3 3 C-6.3 2.67 -9.6 2.34 -13 2 C-13 1.67 -13 1.34 -13 1 C-8.61414671 0.29826347 -4.44209357 -0.10834375 0 0 Z " fill="#928C6E" transform="translate(328,354)"/>
<path d="M0 0 C0 0.66 0 1.32 0 2 C0.66 2.33 1.32 2.66 2 3 C0.25 5.0625 0.25 5.0625 -2 7 C-4.0625 7 -4.0625 7 -6 6 C-7.75 3.9375 -7.75 3.9375 -9 2 C-7.824375 1.7834375 -7.824375 1.7834375 -6.625 1.5625 C-4.19936192 1.04272041 -2.45184765 0 0 0 Z " fill="#635931" transform="translate(309,275)"/>
<path d="M0 0 C0.86625 0.4640625 0.86625 0.4640625 1.75 0.9375 C3.84294184 1.92583364 5.74535275 2.5168613 8 3 C5.75 5.5 5.75 5.5 3 8 C1.68 8 0.36 8 -1 8 C-1.33 7.01 -1.66 6.02 -2 5 C-1.01 5 -0.02 5 1 5 C0.67 3.35 0.34 1.7 0 0 Z " fill="#6F6944" transform="translate(287,292)"/>
<path d="M0 0 C0.33 0 0.66 0 1 0 C1 2.31 1 4.62 1 7 C0.360625 7.28875 -0.27875 7.5775 -0.9375 7.875 C-3.15206079 8.82823451 -3.15206079 8.82823451 -4 11 C-5.1875 8.25 -5.1875 8.25 -6 5 C-4.625 2.625 -4.625 2.625 -3 1 C-2.67 1.66 -2.34 2.32 -2 3 C-1.34 2.01 -0.68 1.02 0 0 Z " fill="#685E36" transform="translate(359,190)"/>
<path d="M0 0 C4.62 0 9.24 0 14 0 C13.34 0.66 12.68 1.32 12 2 C11.67 2.99 11.34 3.98 11 5 C10.67 4.34 10.34 3.68 10 3 C7.97536745 2.34786708 7.97536745 2.34786708 6 2 C6.33 3.32 6.66 4.64 7 6 C5.1875 5.8125 5.1875 5.8125 3 5 C2.01 3.35 1.02 1.7 0 0 Z " fill="#4C7484" transform="translate(222,360)"/>
<path d="M0 0 C2.5 2.3125 2.5 2.3125 5 5 C5 5.99 5 6.98 5 8 C4.34 7.67 3.68 7.34 3 7 C2.7525 7.61875 2.505 8.2375 2.25 8.875 C0.79371361 11.35068687 -0.37812506 11.95125002 -3 13 C-2.49396008 10.83125748 -2.00016187 9.00032373 -1 7 C-0.34 7 0.32 7 1 7 C1.33 6.01 1.66 5.02 2 4 C1.34 4 0.68 4 0 4 C0 2.68 0 1.36 0 0 Z " fill="#7D7753" transform="translate(278,267)"/>
<path d="M0 0 C0.598125 0.804375 1.19625 1.60875 1.8125 2.4375 C3.80947276 5.22327984 3.80947276 5.22327984 7 6 C7 5.01 7 4.02 7 3 C8.65 2.67 10.3 2.34 12 2 C12 2.66 12 3.32 12 4 C11.34 4 10.68 4 10 4 C9.34 5.32 8.68 6.64 8 8 C4 8 4 8 1.25 5.5 C0.5075 4.675 -0.235 3.85 -1 3 C-0.67 2.01 -0.34 1.02 0 0 Z " fill="#1E4D64" transform="translate(258,211)"/>
<path d="M0 0 C2.0625 0.4375 2.0625 0.4375 4 1 C4 3.64 4 6.28 4 9 C0.125 7.125 0.125 7.125 -1 6 C-1.125 3.5 -1.125 3.5 -1 1 C-0.67 0.67 -0.34 0.34 0 0 Z " fill="#07486D" transform="translate(362,166)"/>
<path d="M0 0 C0.99 1.32 1.98 2.64 3 4 C2.67 4.33 2.34 4.66 2 5 C1.63239269 7.32817964 1.29758419 9.6618385 1 12 C0.01 11.67 -0.98 11.34 -2 11 C-2 8.03 -2 5.06 -2 2 C-1.34 2 -0.68 2 0 2 C0 1.34 0 0.68 0 0 Z " fill="#5E5F5D" transform="translate(261,371)"/>
<path d="M0 0 C0.66 0 1.32 0 2 0 C2 1.32 2 2.64 2 4 C3.65 4 5.3 4 7 4 C7 4.66 7 5.32 7 6 C7.66 6 8.32 6 9 6 C9.33 5.01 9.66 4.02 10 3 C10 4.65 10 6.3 10 8 C9.01 8.495 9.01 8.495 8 9 C8 8.34 8 7.68 8 7 C6.02 7.33 4.04 7.66 2 8 C2 7.01 2 6.02 2 5 C1.34 4.67 0.68 4.34 0 4 C0 2.68 0 1.36 0 0 Z " fill="#98936C" transform="translate(390,369)"/>
<path d="M0 0 C2.97 0.495 2.97 0.495 6 1 C5.505 1.391875 5.01 1.78375 4.5 2.1875 C2.54406857 4.55091715 2.75792027 6.01435003 3 9 C1.35 9.33 -0.3 9.66 -2 10 C-2.33 8.68 -2.66 7.36 -3 6 C-2.01 5.67 -1.02 5.34 0 5 C0 3.35 0 1.7 0 0 Z " fill="#877D61" transform="translate(368,358)"/>
<path d="M0 0 C0.33 0 0.66 0 1 0 C1.75667376 7.53181418 2.14364008 14.50280391 1 22 C0.01 22.33 -0.98 22.66 -2 23 C-2.33 21.35 -2.66 19.7 -3 18 C-2.34 17.67 -1.68 17.34 -1 17 C-0.67 11.39 -0.34 5.78 0 0 Z " fill="#756C49" transform="translate(365,184)"/>
<path d="M0 0 C0.66 0 1.32 0 2 0 C2 1.98 2 3.96 2 6 C2.99 6 3.98 6 5 6 C5.33 5.34 5.66 4.68 6 4 C6 5.65 6 7.3 6 9 C3 10 3 10 0 9 C0 6.03 0 3.06 0 0 Z " fill="#605730" transform="translate(400,368)"/>
<path d="M0 0 C0.99 0.66 1.98 1.32 3 2 C3.1875 4.625 3.1875 4.625 3 7 C2.278125 6.67 1.55625 6.34 0.8125 6 C-2.01697427 4.99396471 -4.02895466 4.83022598 -7 5 C-6.67 3.68 -6.34 2.36 -6 1 C-5.34 1 -4.68 1 -4 1 C-4 1.66 -4 2.32 -4 3 C-3.34 3 -2.68 3 -2 3 C-2 2.34 -2 1.68 -2 1 C-1.34 0.67 -0.68 0.34 0 0 Z " fill="#675427" transform="translate(328,367)"/>
<path d="M0 0 C0.66 0.99 1.32 1.98 2 3 C1.01 4.485 1.01 4.485 0 6 C-0.99 6 -1.98 6 -3 6 C-3.33 6.99 -3.66 7.98 -4 9 C-5.0625 7.1875 -5.0625 7.1875 -6 5 C-5.67 4.01 -5.34 3.02 -5 2 C-2.4375 0.8125 -2.4375 0.8125 0 0 Z " fill="#5B5127" transform="translate(393,355)"/>
<path d="M0 0 C0.99 0.99 1.98 1.98 3 3 C2.67 3.66 2.34 4.32 2 5 C2.66 5 3.32 5 4 5 C4.1875 8.3125 4.1875 8.3125 4 12 C3.01 12.99 2.02 13.98 1 15 C0.67 11.37 0.34 7.74 0 4 C-0.66 4 -1.32 4 -2 4 C-1.34 2.68 -0.68 1.36 0 0 Z " fill="#6D6F6E" transform="translate(260,352)"/>
<path d="M0 0 C-0.66 0 -1.32 0 -2 0 C-2 0.66 -2 1.32 -2 2 C-1.01 2.33 -0.02 2.66 1 3 C0.67 3.99 0.34 4.98 0 6 C-1.32 6 -2.64 6 -4 6 C-4 5.01 -4 4.02 -4 3 C-4.99 3.33 -5.98 3.66 -7 4 C-7.99 3.34 -8.98 2.68 -10 2 C-9.01 2 -8.02 2 -7 2 C-6.67 1.34 -6.34 0.68 -6 0 C-3 -1 -3 -1 0 0 Z " fill="#9F966F" transform="translate(297,356)"/>
<path d="M0 0 C0.99 0.33 1.98 0.66 3 1 C3.33 2.98 3.66 4.96 4 7 C4.66 7 5.32 7 6 7 C6 7.66 6 8.32 6 9 C2.74456771 8.65120368 1.98126893 7.97866739 -0.25 5.4375 C-1.11625 4.2309375 -1.11625 4.2309375 -2 3 C-1.34 2.01 -0.68 1.02 0 0 Z " fill="#584E1B" transform="translate(282,288)"/>
<path d="M0 0 C2.64 0.66 5.28 1.32 8 2 C7.34 3.65 6.68 5.3 6 7 C4.68 7 3.36 7 2 7 C0 4 0 4 0 0 Z " fill="#074C75" transform="translate(305,203)"/>
<path d="M0 0 C2 2 2 2 2 5 C1.34 5 0.68 5 0 5 C-0.28875 5.804375 -0.5775 6.60875 -0.875 7.4375 C-2 10 -2 10 -4 11 C-4 8.03 -4 5.06 -4 2 C-2.68 1.34 -1.36 0.68 0 0 Z " fill="#736A40" transform="translate(205,173)"/>
<path d="M0 0 C0.33 0 0.66 0 1 0 C1.05406122 1.93719378 1.09282025 3.87481921 1.125 5.8125 C1.14820313 6.89144531 1.17140625 7.97039062 1.1953125 9.08203125 C1 12 1 12 -1 15 C-3.875 10.25 -3.875 10.25 -5 8 C-3.68 8.33 -2.36 8.66 -1 9 C-1.020625 7.700625 -1.04125 6.40125 -1.0625 5.0625 C-1.08399454 3.70834367 -1.07148199 2.35243917 -1 1 C-0.67 0.67 -0.34 0.34 0 0 Z " fill="#4B5B48" transform="translate(367,166)"/>
<path d="M0 0 C0.66 0.33 1.32 0.66 2 1 C2.25532751 4.06393013 2.21861333 5.63233212 0.625 8.3125 C-0.179375 9.1478125 -0.179375 9.1478125 -1 10 C-1.66 10 -2.32 10 -3 10 C-3.36923077 3.47692308 -3.36923077 3.47692308 -1.5 1.0625 C-1.005 0.711875 -0.51 0.36125 0 0 Z " fill="#084968" transform="translate(216,160)"/>
<path d="M0 0 C0.99 0.33 1.98 0.66 3 1 C3 2.32 3 3.64 3 5 C3.66 5.33 4.32 5.66 5 6 C5.33 5.67 5.66 5.34 6 5 C6.99 5.33 7.98 5.66 9 6 C9 6.66 9 7.32 9 8 C8.34 8 7.68 8 7 8 C7 8.66 7 9.32 7 10 C6.34 10 5.68 10 5 10 C5 9.34 5 8.68 5 8 C3.68 7.67 2.36 7.34 1 7 C1.33 6.34 1.66 5.68 2 5 C0.68 5.33 -0.64 5.66 -2 6 C-2 5.34 -2 4.68 -2 4 C-1.01 3.67 -0.02 3.34 1 3 C0.67 2.01 0.34 1.02 0 0 Z " fill="#A09A77" transform="translate(319,360)"/>
<path d="M0 0 C0.66 0 1.32 0 2 0 C2 0.99 2 1.98 2 3 C3.98 3 5.96 3 8 3 C7.01 4.32 6.02 5.64 5 7 C3.68 6.67 2.36 6.34 1 6 C0.67 6.66 0.34 7.32 0 8 C-0.38063221 5.6739143 -0.71269945 3.33944736 -1 1 C-0.67 0.67 -0.34 0.34 0 0 Z " fill="#706946" transform="translate(291,359)"/>
<path d="M0 0 C0.99 0.33 1.98 0.66 3 1 C4.1875 3.5625 4.1875 3.5625 5 6 C2.69 7.98 0.38 9.96 -2 12 C-2 10.68 -2 9.36 -2 8 C-0.68 7.67 0.64 7.34 2 7 C1.34 4.69 0.68 2.38 0 0 Z " fill="#756F49" transform="translate(297,282)"/>
<path d="M0 0 C1.66666667 0 3.33333333 0 5 0 C5 0.66 5 1.32 5 2 C5.66 2 6.32 2 7 2 C6.67 3.32 6.34 4.64 6 6 C5.34 5.67 4.68 5.34 4 5 C4 5.66 4 6.32 4 7 C3.34 7 2.68 7 2 7 C2 6.34 2 5.68 2 5 C1.34 5 0.68 5 0 5 C0 3.35 0 1.7 0 0 Z " fill="#564A11" transform="translate(273,269)"/>
<path d="M0 0 C1.32 0.33 2.64 0.66 4 1 C4.33 2.32 4.66 3.64 5 5 C6.32 5.33 7.64 5.66 9 6 C8.67 7.32 8.34 8.64 8 10 C7.34 10 6.68 10 6 10 C6 9.34 6 8.68 6 8 C5.34 8 4.68 8 4 8 C3.34 6.68 2.68 5.36 2 4 C1.34 4.66 0.68 5.32 0 6 C0 4.02 0 2.04 0 0 Z " fill="#6B5C3D" transform="translate(339,368)"/>
<path d="M0 0 C1.98 0 3.96 0 6 0 C5.01 0.495 5.01 0.495 4 1 C3.67 1.99 3.34 2.98 3 4 C1.12382302 5.84499398 -0.92737609 7.3683599 -3 9 C-3.66 7.35 -4.32 5.7 -5 4 C-3.02 3.67 -1.04 3.34 1 3 C0.67 2.01 0.34 1.02 0 0 Z " fill="#948E71" transform="translate(346,364)"/>
<path d="M0 0 C2.31 0.33 4.62 0.66 7 1 C6.1875 2.9375 6.1875 2.9375 5 5 C1.91441876 6.02852708 0.22643349 6 -3 6 C-2.67 5.01 -2.34 4.02 -2 3 C-1.34 3 -0.68 3 0 3 C0 2.01 0 1.02 0 0 Z " fill="#AA9472" transform="translate(297,364)"/>
<path d="M0 0 C-0.57323431 3.86933162 -2.38953552 6.15222057 -5 9 C-5.66 9 -6.32 9 -7 9 C-7.33 8.01 -7.66 7.02 -8 6 C-3.85714286 0 -3.85714286 0 0 0 Z " fill="#685D30" transform="translate(363,204)"/>
<path d="M0 0 C0.66 0 1.32 0 2 0 C2 7.59 2 15.18 2 23 C1.67 23 1.34 23 1 23 C0.67 16.4 0.34 9.8 0 3 C-0.66 2.67 -1.32 2.34 -2 2 C-1.34 1.34 -0.68 0.68 0 0 Z " fill="#9A947C" transform="translate(229,113)"/>
<path d="M0 0 C0.99 0.33 1.98 0.66 3 1 C2.67 1.99 2.34 2.98 2 4 C3.32 4.66 4.64 5.32 6 6 C3.69 6.66 1.38 7.32 -1 8 C-1 7.34 -1 6.68 -1 6 C-1.99 5.67 -2.98 5.34 -4 5 C-3.34 4.67 -2.68 4.34 -2 4 C-1.67 3.01 -1.34 2.02 -1 1 C-1 1.66 -1 2.32 -1 3 C-0.34 3 0.32 3 1 3 C0.67 2.01 0.34 1.02 0 0 Z " fill="#938C57" transform="translate(280,370)"/>
<path d="M0 0 C2.0625 0.4375 2.0625 0.4375 4 1 C3.01 1 2.02 1 1 1 C0.67 3.97 0.34 6.94 0 10 C-0.33 9.34 -0.66 8.68 -1 8 C-2.65 8 -4.3 8 -6 8 C-5.67 7.01 -5.34 6.02 -5 5 C-3.02 5.495 -3.02 5.495 -1 6 C-1 5.34 -1 4.68 -1 4 C-1.99 3.67 -2.98 3.34 -4 3 C-3.34 3 -2.68 3 -2 3 C-1.67 2.34 -1.34 1.68 -1 1 C-0.67 0.67 -0.34 0.34 0 0 Z " fill="#5B5838" transform="translate(398,365)"/>
<path d="M0 0 C0.99 0 1.98 0 3 0 C3 1.65 3 3.3 3 5 C2.34 5 1.68 5 1 5 C1 6.32 1 7.64 1 9 C-0.32 8.67 -1.64 8.34 -3 8 C-2.01 7.01 -1.02 6.02 0 5 C-0.99 4.67 -1.98 4.34 -3 4 C-1.6875 2 -1.6875 2 0 0 Z " fill="#1D566D" transform="translate(219,362)"/>
<path d="M0 0 C1.32 0.66 2.64 1.32 4 2 C3.67 2.33 3.34 2.66 3 3 C3.66 3.33 4.32 3.66 5 4 C5 5.32 5 6.64 5 8 C3.35 8 1.7 8 0 8 C-0.33 7.34 -0.66 6.68 -1 6 C-0.34 6 0.32 6 1 6 C0.649375 5.38125 0.29875 4.7625 -0.0625 4.125 C-0.371875 3.42375 -0.68125 2.7225 -1 2 C-0.67 1.34 -0.34 0.68 0 0 Z " fill="#5C5329" transform="translate(403,356)"/>
<path d="M0 0 C2.31 0 4.62 0 7 0 C6.34 2.97 5.68 5.94 5 9 C4.34 9 3.68 9 3 9 C2.87625 8.030625 2.7525 7.06125 2.625 6.0625 C2.41875 5.051875 2.2125 4.04125 2 3 C1.34 2.67 0.68 2.34 0 2 C0 1.34 0 0.68 0 0 Z " fill="#574D27" transform="translate(319,356)"/>
<path d="M0 0 C1.32 0 2.64 0 4 0 C4.103125 0.639375 4.20625 1.27875 4.3125 1.9375 C4.539375 2.618125 4.76625 3.29875 5 4 C5.99 4.33 6.98 4.66 8 5 C7.34 5 6.68 5 6 5 C6 5.99 6 6.98 6 8 C4 7 4 7 2 5 C1.34 5 0.68 5 0 5 C0 3.35 0 1.7 0 0 Z " fill="#605936" transform="translate(354,368)"/>
<path d="M0 0 C3.7952131 1.49097658 5.61042731 3.75700849 8 7 C4.85375007 7.26218749 3.38162983 7.24754367 0.6875 5.5 C0.130625 5.005 -0.42625 4.51 -1 4 C-0.67 2.68 -0.34 1.36 0 0 Z " fill="#797054" transform="translate(349,119)"/>
<path d="M0 0 C0.66 0.99 1.32 1.98 2 3 C2.66 2.67 3.32 2.34 4 2 C4.66 3.98 5.32 5.96 6 8 C4.68 8.33 3.36 8.66 2 9 C2 8.34 2 7.68 2 7 C1.34 7 0.68 7 0 7 C0 5.35 0 3.7 0 2 C-0.66 1.67 -1.32 1.34 -2 1 C-1.34 0.67 -0.68 0.34 0 0 Z " fill="#A29E82" transform="translate(338,369)"/>
<path d="M0 0 C2.31 0 4.62 0 7 0 C6.67 0.99 6.34 1.98 6 3 C6.33 3.33 6.66 3.66 7 4 C7 4.66 7 5.32 7 6 C5.35 6 3.7 6 2 6 C2 4.35 2 2.7 2 1 C1.34 0.67 0.68 0.34 0 0 Z " fill="#7C7155" transform="translate(369,370)"/>
<path d="M0 0 C0.99 0.33 1.98 0.66 3 1 C2.67 1.99 2.34 2.98 2 4 C-0.5625 5.1875 -0.5625 5.1875 -3 6 C-3 6.66 -3 7.32 -3 8 C-3.66 8 -4.32 8 -5 8 C-5 6.02 -5 4.04 -5 2 C-4.360625 1.855625 -3.72125 1.71125 -3.0625 1.5625 C-1.02454854 1.18992819 -1.02454854 1.18992819 0 0 Z " fill="#5D5027" transform="translate(364,356)"/>
<path d="M0 0 C0.66 0.66 1.32 1.32 2 2 C1.9765625 4.1640625 1.9765625 4.1640625 1.625 6.625 C1.51414063 7.44226563 1.40328125 8.25953125 1.2890625 9.1015625 C1.19367188 9.72804688 1.09828125 10.35453125 1 11 C-1.6855594 8.3144406 -2.06049974 5.62378672 -3 2 C-2.01 1.34 -1.02 0.68 0 0 Z " fill="#1D536F" transform="translate(236,360)"/>
<path d="M0 0 C2.31 0 4.62 0 7 0 C8.4606285 2.64738916 9 3.89448334 9 7 C8.34 7 7.68 7 7 7 C5.375 5 5.375 5 4 3 C4.33 2.67 4.66 2.34 5 2 C3.68 1.67 2.36 1.34 1 1 C0.67 2.65 0.34 4.3 0 6 C-1.24546405 3.50907189 -0.7767578 2.58919267 0 0 Z " fill="#8D8553" transform="translate(346,355)"/>
<path d="M0 0 C0.66 0.33 1.32 0.66 2 1 C2.4140625 3.06640625 2.4140625 3.06640625 2.625 5.5625 C2.69976562 6.38878906 2.77453125 7.21507812 2.8515625 8.06640625 C2.90054688 8.70449219 2.94953125 9.34257812 3 10 C1.02 10.99 1.02 10.99 -1 12 C-2.23147292 8.30558125 -1.44298991 7.48015214 0 4 C0 2.68 0 1.36 0 0 Z " fill="#544B13" transform="translate(211,195)"/>
<path d="M0 0 C2.1875 0.3125 2.1875 0.3125 4 1 C4 1.66 4 2.32 4 3 C4.99 3 5.98 3 7 3 C7 3.66 7 4.32 7 5 C0.375 5.25 0.375 5.25 -3 3 C-1.75 1.4375 -1.75 1.4375 0 0 Z " fill="#80795D" transform="translate(390,361)"/>
<path d="M0 0 C1.98 0 3.96 0 6 0 C6 0.66 6 1.32 6 2 C6.66 2.33 7.32 2.66 8 3 C8 3.66 8 4.32 8 5 C5.36 5 2.72 5 0 5 C-0.33 4.34 -0.66 3.68 -1 3 C0.32 3 1.64 3 3 3 C3 2.34 3 1.68 3 1 C2.01 0.67 1.02 0.34 0 0 Z " fill="#9C937D" transform="translate(276,361)"/>
<path d="M0 0 C0.66 0.33 1.32 0.66 2 1 C1.34 2.32 0.68 3.64 0 5 C0.66 5.33 1.32 5.66 2 6 C2 6.99 2 7.98 2 9 C0.68 8.67 -0.64 8.34 -2 8 C-2.6875 5.6875 -2.6875 5.6875 -3 3 C-1.5625 1.1875 -1.5625 1.1875 0 0 Z " fill="#7A7346" transform="translate(279,282)"/>
<path d="M0 0 C1 3 1 3 0.5 5 C-1.77582303 8.03443071 -4.47186236 8.69328236 -8 10 C-8 9.01 -8 8.02 -8 7 C-7.01 7 -6.02 7 -5 7 C-4.67 6.01 -4.34 5.02 -4 4 C-2.70644173 2.62804426 -1.37701298 1.28817344 0 0 Z " fill="#35493A" transform="translate(319,214)"/>
<path d="M0 0 C0.33 0.66 0.66 1.32 1 2 C-0.65 4.31 -2.3 6.62 -4 9 C-4.99 8.67 -5.98 8.34 -7 8 C-6.67 7.34 -6.34 6.68 -6 6 C-5.34 6 -4.68 6 -4 6 C-3.896875 5.38125 -3.79375 4.7625 -3.6875 4.125 C-3 2 -3 2 0 0 Z " fill="#014B79" transform="translate(267,207)"/>
<path d="M0 0 C0.33 2.31 0.66 4.62 1 7 C0.34 7 -0.32 7 -1 7 C-1.33 6.01 -1.66 5.02 -2 4 C-4.01508358 3.26676204 -4.01508358 3.26676204 -6 3 C-6 2.34 -6 1.68 -6 1 C-4 0 -4 0 0 0 Z " fill="#6A6242" transform="translate(341,355)"/>
<path d="M0 0 C1.14926266 0.95421808 2.29430541 1.91352045 3.4375 2.875 C4.07558594 3.40867188 4.71367187 3.94234375 5.37109375 4.4921875 C7 6 7 6 8 8 C5.125 7.6875 5.125 7.6875 2 7 C0 4 0 4 0 0 Z " fill="#716744" transform="translate(235,224)"/>
<path d="M0 0 C1.33332095 2.6666419 0.67102033 4.16680303 0 7 C-0.66 6.67 -1.32 6.34 -2 6 C-2.33 6.66 -2.66 7.32 -3 8 C-4.32 7.67 -5.64 7.34 -7 7 C-4.69 4.69 -2.38 2.38 0 0 Z " fill="#716C46" transform="translate(310,223)"/>
<path d="M0 0 C0 1.65 0 3.3 0 5 C-2.31 5 -4.62 5 -7 5 C-7.33 4.01 -7.66 3.02 -8 2 C-1.125 0 -1.125 0 0 0 Z " fill="#605837" transform="translate(370,372)"/>
<path d="M0 0 C0.33 0.66 0.66 1.32 1 2 C1.66 2 2.32 2 3 2 C3 3.65 3 5.3 3 7 C3.66 7.33 4.32 7.66 5 8 C4.01 8 3.02 8 2 8 C1.67 6.68 1.34 5.36 1 4 C-0.65 4.33 -2.3 4.66 -4 5 C-4 4.01 -4 3.02 -4 2 C-2.68 1.34 -1.36 0.68 0 0 Z " fill="#BCAA9D" transform="translate(368,369)"/>
<path d="M0 0 C0.99 0 1.98 0 3 0 C3.33 2.31 3.66 4.62 4 7 C1.69 7 -0.62 7 -3 7 C-2.01 6.34 -1.02 5.68 0 5 C0.25030977 2.41619823 0.25030977 2.41619823 0 0 Z " fill="#574E26" transform="translate(282,368)"/>
<path d="M0 0 C0.33 1.32 0.66 2.64 1 4 C0.01 4.33 -0.98 4.66 -2 5 C-2.33 5.99 -2.66 6.98 -3 8 C-4.32 7.67 -5.64 7.34 -7 7 C-4.69 4.69 -2.38 2.38 0 0 Z " fill="#6F6943" transform="translate(329,237)"/>
<path d="M0 0 C0.33 0 0.66 0 1 0 C1 4.29 1 8.58 1 13 C0.01 12.67 -0.98 12.34 -2 12 C-1.34 8.04 -0.68 4.08 0 0 Z " fill="#424B2A" transform="translate(293,198)"/>
<path d="M0 0 C0 2 0 2 -1.875 4 C-2.57625 4.66 -3.2775 5.32 -4 6 C-4.66 6.66 -5.32 7.32 -6 8 C-6.66 7.67 -7.32 7.34 -8 7 C-8 7.66 -8 8.32 -8 9 C-8.66 9 -9.32 9 -10 9 C-8.91720359 5.75161077 -8.10963155 4.95717417 -5.5625 2.8125 C-4.94503906 2.28269531 -4.32757813 1.75289062 -3.69140625 1.20703125 C-2 0 -2 0 0 0 Z " fill="#4E7995" transform="translate(268,202)"/>
<path d="M0 0 C1.32 0.33 2.64 0.66 4 1 C2.76302083 2.46484375 1.52604167 3.9296875 0.2890625 5.39453125 C-0.89201099 6.8655046 -1.95358529 8.43037794 -3 10 C-3.75 7.8125 -3.75 7.8125 -4 5 C-2.0625 2.1875 -2.0625 2.1875 0 0 Z " fill="#756943" transform="translate(252,194)"/>
<path d="M0 0 C1.5625 1.25 1.5625 1.25 3 3 C2.74853421 5.13745922 2.54074221 6.45925779 1 8 C0.01 8.33 -0.98 8.66 -2 9 C-2 7.68 -2 6.36 -2 5 C-1.34 5 -0.68 5 0 5 C0 3.35 0 1.7 0 0 Z " fill="#639FB1" transform="translate(222,362)"/>
<path d="M0 0 C0.33 0 0.66 0 1 0 C1 2.97 1 5.94 1 9 C-1.97 8.505 -1.97 8.505 -5 8 C-4.67 7.34 -4.34 6.68 -4 6 C-3.34 6 -2.68 6 -2 6 C-1.34 4.02 -0.68 2.04 0 0 Z " fill="#245972" transform="translate(226,362)"/>
<path d="M0 0 C0.86625 0.495 0.86625 0.495 1.75 1 C4.19883862 2.27075898 4.19883862 2.27075898 8 2 C8 2.66 8 3.32 8 4 C3.94568308 5.15837626 1.78187881 4.83691257 -2 3 C-1.34 2.67 -0.68 2.34 0 2 C0 1.34 0 0.68 0 0 Z " fill="#A19F94" transform="translate(308,363)"/>
<path d="M0 0 C1.65 0 3.3 0 5 0 C5 0.66 5 1.32 5 2 C5.99 2.33 6.98 2.66 8 3 C4.71023192 4.09658936 3.28696233 3.79953138 0 3 C0 2.01 0 1.02 0 0 Z " fill="#7D6D3D" transform="translate(314,356)"/>
<path d="M0 0 C1.65 0 3.3 0 5 0 C5 0.66 5 1.32 5 2 C4.34 2.66 3.68 3.32 3 4 C2.67 4.99 2.34 5.98 2 7 C1.34 7 0.68 7 0 7 C-1.04449911 3.86650268 -0.93423645 3.01031744 0 0 Z " fill="#574C1E" transform="translate(347,356)"/>
<path d="M0 0 C1.32 0.33 2.64 0.66 4 1 C0.535 3.97 0.535 3.97 -3 7 C-3.33 5.02 -3.66 3.04 -4 1 C-3.67 1.66 -3.34 2.32 -3 3 C-2.01 3 -1.02 3 0 3 C0 2.01 0 1.02 0 0 Z " fill="#7C7644" transform="translate(325,227)"/>
<path d="M0 0 C4.875 2.625 4.875 2.625 6 6 C4.33333333 6 2.66666667 6 1 6 C1 5.34 1 4.68 1 4 C0.34 4 -0.32 4 -1 4 C-0.67 2.68 -0.34 1.36 0 0 Z " fill="#6B653C" transform="translate(220,209)"/>
<path d="M0 0 C2.64 1.98 5.28 3.96 8 6 C5 8 5 8 3 8 C3 7.01 3 6.02 3 5 C2.34 5 1.68 5 1 5 C0.67 3.35 0.34 1.7 0 0 Z " fill="#7C7C5A" transform="translate(250,205)"/>
<path d="M0 0 C0.33 0.66 0.66 1.32 1 2 C0.01 2.99 -0.98 3.98 -2 5 C-1.34 3.35 -0.68 1.7 0 0 Z M-5 4 C-4.01 4.33 -3.02 4.66 -2 5 C-2 5.99 -2 6.98 -2 8 C-3.32 8.33 -4.64 8.66 -6 9 C-5.67 7.35 -5.34 5.7 -5 4 Z " fill="#074870" transform="translate(265,205)"/>
<path d="M0 0 C1.32 0.33 2.64 0.66 4 1 C3.02433888 2.16959987 2.044375 3.33561177 1.0625 4.5 C0.51722656 5.1496875 -0.02804687 5.799375 -0.58984375 6.46875 C-1.05519531 6.9740625 -1.52054687 7.479375 -2 8 C-2.33 8 -2.66 8 -3 8 C-3 6.35 -3 4.7 -3 3 C-2.34 3 -1.68 3 -1 3 C-0.67 2.01 -0.34 1.02 0 0 Z " fill="#6C6542" transform="translate(348,203)"/>
<path d="M0 0 C2.9375 0.8125 2.9375 0.8125 6 2 C6.33 2.99 6.66 3.98 7 5 C7.66 5.33 8.32 5.66 9 6 C8.67 6.99 8.34 7.98 8 9 C8 8.34 8 7.68 8 7 C7.4225 6.773125 6.845 6.54625 6.25 6.3125 C3.4336339 4.66961977 1.91922886 2.60466773 0 0 Z " fill="#756F4D" transform="translate(238,248)"/>
<path d="M0 0 C1.65 0 3.3 0 5 0 C3.02 2.31 1.04 4.62 -1 7 C-2 4 -2 4 -1.0625 1.8125 C-0.5365625 0.9153125 -0.5365625 0.9153125 0 0 Z " fill="#8B7A5E" transform="translate(314,237)"/>
<path d="M0 0 C0.99 0.33 1.98 0.66 3 1 C2.6875 4.375 2.6875 4.375 2 8 C1.01 8.66 0.02 9.32 -1 10 C-1.125 2.25 -1.125 2.25 0 0 Z " fill="#716C47" transform="translate(202,187)"/>
<path d="M0 0 C2.475 0.495 2.475 0.495 5 1 C5.33 2.32 5.66 3.64 6 5 C4.125 4.75 4.125 4.75 2 4 C0.75 1.9375 0.75 1.9375 0 0 Z " fill="#675F35" transform="translate(314,187)"/>
<path d="M0 0 C1.32 0.66 2.64 1.32 4 2 C4 2.99 4 3.98 4 5 C3.34 4.67 2.68 4.34 2 4 C2 4.99 2 5.98 2 7 C1.34 6.67 0.68 6.34 0 6 C-0.6875 3.5 -0.6875 3.5 -1 1 C-0.67 0.67 -0.34 0.34 0 0 Z " fill="#61552B" transform="translate(407,368)"/>
<path d="M0 0 C2 2 2 2 2 6 C0.68 6.33 -0.64 6.66 -2 7 C-2.33 6.01 -2.66 5.02 -3 4 C-2.34 4 -1.68 4 -1 4 C-0.67 2.68 -0.34 1.36 0 0 Z " fill="#3E6284" transform="translate(251,366)"/>
<path d="M0 0 C0.33 0.66 0.66 1.32 1 2 C1.66 2.33 2.32 2.66 3 3 C2.34 4.65 1.68 6.3 1 8 C0.34 8 -0.32 8 -1 8 C-1.625 5.6875 -1.625 5.6875 -2 3 C-1.34 2.01 -0.68 1.02 0 0 Z " fill="#6D683F" transform="translate(298,368)"/>
<path d="M0 0 C0.99 0.495 0.99 0.495 2 1 C1.95875 1.763125 1.9175 2.52625 1.875 3.3125 C1.77919176 6.22718416 1.77919176 6.22718416 4 9 C2.02 9.99 2.02 9.99 0 11 C0 7.37 0 3.74 0 0 Z " fill="#9CC4D0" transform="translate(237,359)"/>
<path d="M0 0 C4.875 4.625 4.875 4.625 6 8 C5.01 8 4.02 8 3 8 C3 7.01 3 6.02 3 5 C2.01 5 1.02 5 0 5 C0 3.35 0 1.7 0 0 Z " fill="#635837" transform="translate(291,275)"/>
<path d="M0 0 C0.66 0.33 1.32 0.66 2 1 C2.625 3.5625 2.625 3.5625 3 6 C1.125 6.625 1.125 6.625 -1 7 C-1.66 6.34 -2.32 5.68 -3 5 C-2.34 5 -1.68 5 -1 5 C-0.67 3.35 -0.34 1.7 0 0 Z " fill="#A7A48D" transform="translate(385,371)"/>
<path d="M0 0 C2.1875 0.3125 2.1875 0.3125 4 1 C4 1.99 4 2.98 4 4 C1.69 3.67 -0.62 3.34 -3 3 C-1.75 1.4375 -1.75 1.4375 0 0 Z " fill="#5F8794" transform="translate(239,369)"/>
<path d="M0 0 C0.33 1.65 0.66 3.3 1 5 C-0.32 5 -1.64 5 -3 5 C-3.33 3.68 -3.66 2.36 -4 1 C-2 0 -2 0 0 0 Z " fill="#255C75" transform="translate(209,366)"/>
<path d="M0 0 C0.99 0.33 1.98 0.66 3 1 C3 1.99 3 2.98 3 4 C2.34 4 1.68 4 1 4 C1 4.66 1 5.32 1 6 C0.34 5.67 -0.32 5.34 -1 5 C-0.67 4.34 -0.34 3.68 0 3 C-0.99 3 -1.98 3 -3 3 C-2 1 -2 1 0 0 Z " fill="#85815B" transform="translate(316,367)"/>
<path d="M0 0 C1.258125 -0.04125 2.51625 -0.0825 3.8125 -0.125 C4.52019531 -0.14820313 5.22789062 -0.17140625 5.95703125 -0.1953125 C8 0 8 0 11 2 C9.02 2.33 7.04 2.66 5 3 C5 2.34 5 1.68 5 1 C4.01 1 3.02 1 2 1 C1.67 1.66 1.34 2.32 1 3 C0.67 2.01 0.34 1.02 0 0 Z " fill="#44707E" transform="translate(211,360)"/>
<path d="M0 0 C1.32 0.66 2.64 1.32 4 2 C3.67 2.99 3.34 3.98 3 5 C2.34 4.67 1.68 4.34 1 4 C0.67 4.66 0.34 5.32 0 6 C0 5.34 0 4.68 0 4 C-0.66 3.67 -1.32 3.34 -2 3 C-1.34 2.01 -0.68 1.02 0 0 Z " fill="#7B7354" transform="translate(273,355)"/>
<path d="M0 0 C1.65 0 3.3 0 5 0 C5.33 1.32 5.66 2.64 6 4 C4.125 4.625 4.125 4.625 2 5 C1.34 4.34 0.68 3.68 0 3 C0 2.01 0 1.02 0 0 Z " fill="#8C8769" transform="translate(404,355)"/>
<path d="M0 0 C0.33 0.99 0.66 1.98 1 3 C-0.4375 5.1875 -0.4375 5.1875 -2 7 C-3.32 6.67 -4.64 6.34 -6 6 C-5.01 5.67 -4.02 5.34 -3 5 C-2.67 4.01 -2.34 3.02 -2 2 C-1.34 2 -0.68 2 0 2 C0 1.34 0 0.68 0 0 Z " fill="#7B7553" transform="translate(313,252)"/>
<path d="M0 0 C-1.65 1.65 -3.3 3.3 -5 5 C-5.33 3.35 -5.66 1.7 -6 0 C-3 -1 -3 -1 0 0 Z " fill="#7C7651" transform="translate(352,234)"/>
<path d="M0 0 C3.65316671 1.24976756 4.78065836 1.67098753 7 5 C5.68 5.33 4.36 5.66 3 6 C2.01 4.02 1.02 2.04 0 0 Z " fill="#7F7758" transform="translate(295,228)"/>
<path d="M0 0 C0.33 2.31 0.66 4.62 1 7 C0.34 7 -0.32 7 -1 7 C-4 3.53846154 -4 3.53846154 -4 1 C-2 0 -2 0 0 0 Z " fill="#77724E" transform="translate(214,217)"/>
<path d="M0 0 C5.53846154 0.61538462 5.53846154 0.61538462 7.875 2.5625 C8.431875 3.2740625 8.431875 3.2740625 9 4 C5.87709365 3.51421457 3.00419641 3.0013988 0 2 C0 1.34 0 0.68 0 0 Z " fill="#356C87" transform="translate(298,198)"/>
<path d="M0 0 C0.33 1.32 0.66 2.64 1 4 C-1.9719385 2.87548273 -4.33440687 1.77706209 -7 0 C-4.3333581 -1.33332095 -2.83319697 -0.67102033 0 0 Z " fill="#635D37" transform="translate(307,180)"/>
<path d="M0 0 C1.32 0.66 2.64 1.32 4 2 C3.01 2.33 2.02 2.66 1 3 C0.67 5.31 0.34 7.62 0 10 C-0.33 10 -0.66 10 -1 10 C-1.02689216 8.52093108 -1.04634621 7.04172517 -1.0625 5.5625 C-1.07410156 4.73878906 -1.08570313 3.91507813 -1.09765625 3.06640625 C-1 1 -1 1 0 0 Z " fill="#7D7851" transform="translate(349,140)"/>
<path d="M0 0 C2.31 1.98 4.62 3.96 7 6 C6.01 6.33 5.02 6.66 4 7 C1 5 1 5 0.3125 2.375 C0.209375 1.59125 0.10625 0.8075 0 0 Z " fill="#766F42" transform="translate(363,132)"/>
<path d="M0 0 C1.98 0 3.96 0 6 0 C6.33 1.32 6.66 2.64 7 4 C5.35 4 3.7 4 2 4 C2 3.34 2 2.68 2 2 C1.34 2 0.68 2 0 2 C0 1.34 0 0.68 0 0 Z " fill="#7B7450" transform="translate(390,367)"/>
<path d="M0 0 C2.64 0 5.28 0 8 0 C5.3144406 2.6855594 2.62378672 3.06049974 -1 4 C-0.67 2.68 -0.34 1.36 0 0 Z " fill="#514723" transform="translate(303,356)"/>
<path d="M0 0 C2.0625 0.4375 2.0625 0.4375 4 1 C3.67 1.99 3.34 2.98 3 4 C1.35 4.33 -0.3 4.66 -2 5 C-1.125 1.125 -1.125 1.125 0 0 Z " fill="#7F7B60" transform="translate(284,275)"/>
<path d="M0 0 C0 1.65 0 3.3 0 5 C-2.97 4.505 -2.97 4.505 -6 4 C-5.34 3.67 -4.68 3.34 -4 3 C-4 2.34 -4 1.68 -4 1 C-2 0 -2 0 0 0 Z " fill="#645B2D" transform="translate(360,182)"/>
<path d="M0 0 C0.99 0.66 1.98 1.32 3 2 C2.38125 2.0825 1.7625 2.165 1.125 2.25 C-1.18437567 2.81258459 -1.18437567 2.81258459 -2.25 5.0625 C-2.4975 5.701875 -2.745 6.34125 -3 7 C-3.66 5.68 -4.32 4.36 -5 3 C-4.360625 2.690625 -3.72125 2.38125 -3.0625 2.0625 C-1.06389179 1.1654837 -1.06389179 1.1654837 0 0 Z " fill="#4F6A6C" transform="translate(217,166)"/>
<path d="M0 0 C1.48199902 0.44909061 2.96055236 0.90956564 4.4375 1.375 C5.26121094 1.63023437 6.08492188 1.88546875 6.93359375 2.1484375 C9 3 9 3 10 5 C3.49955237 4.38675022 3.49955237 4.38675022 1.0625 2.5 C0 1 0 1 0 0 Z " fill="#898562" transform="translate(304,163)"/>
<path d="M0 0 C0.66 0.33 1.32 0.66 2 1 C1.67 2.32 1.34 3.64 1 5 C-2.75 6.125 -2.75 6.125 -5 5 C-4.67 4.34 -4.34 3.68 -4 3 C-3.01 3.33 -2.02 3.66 -1 4 C-0.67 2.68 -0.34 1.36 0 0 Z " fill="#789CA4" transform="translate(201,367)"/>
<path d="M0 0 C0.66 0 1.32 0 2 0 C1.67 1.98 1.34 3.96 1 6 C0.01 6 -0.98 6 -2 6 C-1.49396008 3.83125748 -1.00016187 2.00032373 0 0 Z " fill="#527989" transform="translate(199,365)"/>
<path d="M0 0 C2.475 0.495 2.475 0.495 5 1 C4.67 2.32 4.34 3.64 4 5 C3.01 4.67 2.02 4.34 1 4 C0.3125 1.9375 0.3125 1.9375 0 0 Z " fill="#748158" transform="translate(409,366)"/>
<path d="M0 0 C0.99 0 1.98 0 3 0 C3 0.99 3 1.98 3 3 C2.01 3 1.02 3 0 3 C-0.33 4.32 -0.66 5.64 -1 7 C-1.66 6.34 -2.32 5.68 -3 5 C-2.34 5 -1.68 5 -1 5 C-0.67 3.35 -0.34 1.7 0 0 Z " fill="#684D26" transform="translate(377,368)"/>
<path d="M0 0 C1.98 0.495 1.98 0.495 4 1 C3.67 1.99 3.34 2.98 3 4 C2.34 4 1.68 4 1 4 C1 4.66 1 5.32 1 6 C0.34 6 -0.32 6 -1 6 C-0.67 4.02 -0.34 2.04 0 0 Z " fill="#3B3C30" transform="translate(260,367)"/>
<path d="M0 0 C2.45484649 2.13464912 3.68134222 3.70720291 4 7 C3.34 7.66 2.68 8.32 2 9 C0.50178941 5.62902617 0 3.79557881 0 0 Z " fill="#608696" transform="translate(247,360)"/>
<path d="M0 0 C1.32 0.33 2.64 0.66 4 1 C4.33 2.98 4.66 4.96 5 7 C2.5 5.1875 2.5 5.1875 0 3 C0 2.01 0 1.02 0 0 Z " fill="#79714E" transform="translate(295,270)"/>
<path d="M0 0 C0.33 0.66 0.66 1.32 1 2 C1.66 2.33 2.32 2.66 3 3 C1.35 4.32 -0.3 5.64 -2 7 C-1.125 1.125 -1.125 1.125 0 0 Z " fill="#706B42" transform="translate(341,240)"/>
<path d="M0 0 C2 1 2 1 2 1 Z " fill="#BFBFBF" transform="translate(274,375)"/>
<path d="" fill="#7F7F7F" transform="translate(0,0)"/>
<path d="" fill="#FFFFFF" transform="translate(0,0)"/>
<path d="M0 0 C2 1 2 1 2 1 Z " fill="#808080" transform="translate(341,366)"/>
<path d="M0 0 C2 1 2 1 2 1 Z " fill="#7F7F7F" transform="translate(239,363)"/>
<path d="" fill="#808080" transform="translate(0,0)"/>
<path d="" fill="#808080" transform="translate(0,0)"/>
<path d="" fill="#555555" transform="translate(0,0)"/>
<path d="" fill="#FFFFFF" transform="translate(0,0)"/>
<path d="" fill="#555555" transform="translate(0,0)"/>
<path d="" fill="#FFFFFF" transform="translate(0,0)"/>
</svg>
